<svg width="110" height="28" viewBox="0 0 110 28" fill="none" xmlns="http://www.w3.org/2000/svg">
<path fill-rule="evenodd" clip-rule="evenodd" d="M56.61 27.93V13.63H56.79V27.93H56.61Z" fill="white"/>
<path d="M53.4424 22.1692V24.9931C53.4424 25.6346 53.4076 26.1018 53.3378 26.3946C53.2681 26.6875 53.1234 26.9612 52.9038 27.2157C52.6841 27.4702 52.4192 27.6532 52.1089 27.7648C51.7986 27.8763 51.4517 27.9321 51.0682 27.9321C50.5627 27.9321 50.1426 27.8746 49.8079 27.7595C49.4732 27.641 49.2065 27.458 49.0078 27.2104C48.8091 26.9629 48.6679 26.7032 48.5842 26.4312C48.5005 26.1558 48.4587 25.72 48.4587 25.1239V22.1692C48.4587 21.3918 48.525 20.8095 48.6574 20.4226C48.7934 20.0356 49.0601 19.7253 49.4575 19.4917C49.8585 19.2581 50.3431 19.1413 50.9113 19.1413C51.375 19.1413 51.7899 19.2233 52.156 19.3871C52.522 19.5475 52.7957 19.7445 52.977 19.978C53.1583 20.2116 53.2803 20.4748 53.3431 20.7677C53.4093 21.0606 53.4424 21.5277 53.4424 22.1692ZM51.3297 21.458C51.3297 21.0083 51.307 20.7276 51.2617 20.616C51.2199 20.501 51.1188 20.4435 50.9584 20.4435C50.8015 20.4435 50.6969 20.5045 50.6446 20.6265C50.5958 20.745 50.5714 21.0222 50.5714 21.458V25.5893C50.5714 26.0809 50.5941 26.3772 50.6394 26.4783C50.6882 26.5794 50.7911 26.63 50.9479 26.63C51.1048 26.63 51.2077 26.5707 51.2565 26.4522C51.3053 26.3336 51.3297 26.0669 51.3297 25.652V21.458Z" fill="white"/>
<path d="M47.3187 19.3035V20.6579H44.6987V22.096C45.0264 21.709 45.4483 21.5155 45.9642 21.5155C46.5465 21.5155 46.9857 21.6794 47.2821 22.0071C47.5819 22.3313 47.7318 22.9571 47.7318 23.8845V25.0925C47.7318 25.6922 47.7022 26.1332 47.6429 26.4156C47.5871 26.6945 47.4651 26.9542 47.2768 27.1948C47.0886 27.4318 46.8254 27.6149 46.4872 27.7439C46.1525 27.8694 45.7429 27.9321 45.2583 27.9321C44.7144 27.9321 44.235 27.838 43.8202 27.6497C43.4053 27.458 43.1107 27.1739 42.9364 26.7973C42.7621 26.4208 42.6749 25.8386 42.6749 25.0507V24.5905H44.7876V25.1187C44.7876 25.666 44.8068 26.0547 44.8451 26.2848C44.8835 26.5149 45.016 26.63 45.2426 26.63C45.3472 26.63 45.4308 26.5969 45.4936 26.5306C45.5598 26.4644 45.5947 26.3929 45.5982 26.3162C45.6052 26.2395 45.6121 25.9066 45.6191 25.3174V23.6387C45.6191 23.3215 45.586 23.1053 45.5197 22.9903C45.4535 22.8752 45.3437 22.8177 45.1903 22.8177C45.0927 22.8177 45.0107 22.8473 44.9445 22.9066C44.8783 22.9659 44.8347 23.0304 44.8138 23.1001C44.7963 23.1663 44.7876 23.3232 44.7876 23.5707H42.6958L42.7847 19.3035H47.3187Z" fill="white"/>
<path d="M40.9962 22.9746C41.317 23.0826 41.5558 23.2604 41.7127 23.508C41.8696 23.752 41.948 24.3273 41.948 25.2337C41.948 25.9066 41.8713 26.4295 41.7179 26.8025C41.5645 27.1721 41.2995 27.4545 40.923 27.6497C40.5465 27.8415 40.0636 27.9373 39.4745 27.9373C38.8051 27.9373 38.2786 27.8258 37.8951 27.6027C37.5151 27.376 37.2641 27.1006 37.1421 26.7764C37.0236 26.4487 36.9643 25.8822 36.9643 25.0768V24.4074H39.077V25.7828C39.077 26.1489 39.0979 26.3824 39.1398 26.4835C39.1851 26.5812 39.2827 26.63 39.4326 26.63C39.5965 26.63 39.7045 26.5672 39.7568 26.4417C39.8091 26.3162 39.8353 25.9885 39.8353 25.4586V24.8729C39.8353 24.5486 39.7987 24.3116 39.7255 24.1617C39.6523 24.0117 39.5442 23.9141 39.4012 23.8688C39.2583 23.82 38.9811 23.7921 38.5697 23.7851V22.5562C39.0718 22.5562 39.3821 22.537 39.5006 22.4987C39.6191 22.4603 39.7045 22.3767 39.7568 22.2477C39.8091 22.1187 39.8353 21.9165 39.8353 21.641V21.1704C39.8353 20.874 39.8039 20.6788 39.7412 20.5847C39.6819 20.4905 39.5878 20.4435 39.4588 20.4435C39.3123 20.4435 39.2112 20.494 39.1555 20.5951C39.1032 20.6928 39.077 20.9037 39.077 21.2279V21.9234H36.9643V21.2018C36.9643 20.3929 37.1491 19.8473 37.5186 19.5649C37.8882 19.279 38.4756 19.1361 39.281 19.1361C40.2885 19.1361 40.9718 19.3331 41.3309 19.727C41.69 20.121 41.8696 20.6683 41.8696 21.3691C41.8696 21.8432 41.8051 22.1866 41.6761 22.3993C41.5471 22.6085 41.3205 22.8002 40.9962 22.9746Z" fill="white"/>
<path d="M33.8135 22.2126V26.6578H34.6922V27.77H32.3683V22.2126H33.8135Z" fill="white"/>
<path d="M22.52 20.08C22.0734 20.0919 21.6401 20.2352 21.2746 20.4921C20.9091 20.7491 20.6275 21.1082 20.4652 21.5244C20.3028 21.9407 20.2669 22.3956 20.362 22.8322C20.457 23.2687 20.6788 23.6676 20.9996 23.9787C21.3203 24.2897 21.7257 24.4992 22.1649 24.581C22.6042 24.6627 23.0578 24.6129 23.4689 24.4379C23.88 24.263 24.2304 23.9706 24.4761 23.5974C24.7217 23.2242 24.8518 22.7868 24.85 22.34C24.8515 22.0369 24.7918 21.7365 24.6744 21.457C24.5569 21.1775 24.3842 20.9246 24.1666 20.7135C23.949 20.5024 23.6909 20.3375 23.408 20.2287C23.125 20.1198 22.823 20.0693 22.52 20.08ZM22.57 23.38C22.3746 23.3702 22.1864 23.3034 22.0287 23.1877C21.871 23.072 21.7506 22.9127 21.6825 22.7293C21.6145 22.546 21.6017 22.3467 21.6457 22.1561C21.6898 21.9655 21.7887 21.792 21.9303 21.6571C22.072 21.5222 22.2501 21.4318 22.4426 21.3971C22.6351 21.3624 22.8335 21.3849 23.0133 21.4619C23.1932 21.5388 23.3465 21.6668 23.4543 21.83C23.5622 21.9932 23.6198 22.1844 23.62 22.38C23.6202 22.5157 23.5927 22.6499 23.5394 22.7746C23.486 22.8993 23.4079 23.0119 23.3096 23.1054C23.2114 23.199 23.0952 23.2715 22.9681 23.3187C22.8409 23.366 22.7055 23.3868 22.57 23.38Z" fill="#49B8DB"/>
<path d="M5.18002 20.08C4.73387 20.0938 4.30167 20.2387 3.93749 20.4968C3.57331 20.7549 3.29329 21.1147 3.13247 21.531C2.97165 21.9474 2.93717 22.402 3.03332 22.8379C3.12947 23.2737 3.35199 23.6716 3.67306 23.9817C3.99412 24.2918 4.39947 24.5003 4.83843 24.5813C5.2774 24.6622 5.73047 24.6119 6.14102 24.4367C6.55156 24.2615 6.90136 23.9692 7.14663 23.5962C7.3919 23.2233 7.52177 22.7864 7.52001 22.34C7.52161 22.036 7.46156 21.7347 7.3435 21.4545C7.22544 21.1743 7.05182 20.921 6.83312 20.7097C6.61442 20.4985 6.3552 20.3338 6.07107 20.2256C5.78694 20.1173 5.48382 20.0678 5.18002 20.08ZM5.24001 23.38C5.04223 23.38 4.84889 23.3213 4.68444 23.2115C4.51999 23.1016 4.39181 22.9454 4.31613 22.7627C4.24044 22.5799 4.22066 22.3789 4.25924 22.1849C4.29783 21.9909 4.39304 21.8127 4.53289 21.6729C4.67274 21.533 4.85093 21.4378 5.04492 21.3992C5.2389 21.3606 5.43998 21.3804 5.6227 21.4561C5.80543 21.5318 5.96161 21.6599 6.0715 21.8244C6.18138 21.9888 6.24001 22.1822 6.24001 22.38C6.24001 22.6452 6.13464 22.8995 5.94711 23.0871C5.75957 23.2746 5.50523 23.38 5.24001 23.38Z" fill="#49B8DB"/>
<path d="M27.61 20.57C27.6004 20.487 27.6004 20.4031 27.61 20.32C27.6453 19.9784 27.5764 19.634 27.4121 19.3324C27.2479 19.0307 26.9961 18.7858 26.69 18.63C26.5205 18.5294 26.3433 18.4425 26.16 18.37C25.1063 17.9504 23.9988 17.6811 22.87 17.57C22.0557 17.4955 21.2824 17.1784 20.65 16.66C19.7781 15.9662 18.8074 15.4068 17.77 15C15.8111 14.2346 13.723 13.8544 11.62 13.88C10.2845 13.8389 8.95537 14.0809 7.72001 14.5901C6.91139 14.9667 6.14954 15.4365 5.44999 15.99C4.8956 16.4139 4.25861 16.7171 3.58 16.88C2.91 17.04 2.26 17.2401 1.58 17.4601C1.3161 17.5304 1.0841 17.6885 0.922282 17.9085C0.760465 18.1285 0.678531 18.3972 0.690013 18.67C0.683988 19.0427 0.626773 19.4129 0.519999 19.77C0.311133 20.5041 0.24996 21.2722 0.340007 22.0301C0.337379 22.2244 0.401455 22.4138 0.521556 22.5667C0.641657 22.7195 0.81053 22.8266 1.00001 22.87C1.42701 22.9347 1.85813 22.9681 2.28999 22.97C2.19355 22.5227 2.2007 22.0594 2.31089 21.6153C2.42108 21.1712 2.63139 20.7582 2.92573 20.4079C3.22007 20.0576 3.59065 19.7792 4.0091 19.5941C4.42756 19.4091 4.8828 19.3222 5.34001 19.3401C5.76848 19.3659 6.18643 19.4833 6.56562 19.6844C6.94482 19.8856 7.27641 20.1658 7.53804 20.5061C7.79966 20.8464 7.98522 21.2389 8.08216 21.6571C8.17911 22.0752 8.18518 22.5093 8.09999 22.93H19.7C19.5981 22.5123 19.5939 22.0767 19.6875 21.657C19.7812 21.2373 19.9702 20.8449 20.24 20.51C20.5013 20.1718 20.8319 19.8934 21.2096 19.6933C21.5873 19.4933 22.0034 19.3762 22.43 19.35C22.7917 19.3259 23.1547 19.3736 23.4979 19.4903C23.8411 19.607 24.1579 19.7905 24.43 20.0301C24.861 20.365 25.1884 20.8151 25.3742 21.3283C25.56 21.8415 25.5967 22.3968 25.48 22.93H25.75H26.91C27.36 22.93 27.49 22.8301 27.6 22.4001C27.7515 21.7999 27.755 21.1718 27.61 20.57ZM12.2 17.22H9.39L6.56001 17.17C6.52686 17.159 6.49696 17.14 6.47303 17.1146C6.4491 17.0892 6.43189 17.0581 6.42295 17.0244C6.41402 16.9906 6.41364 16.9552 6.42186 16.9212C6.43007 16.8873 6.44663 16.856 6.47001 16.83C7.32132 16.0084 8.37842 15.4314 9.53001 15.16C10.3106 14.9574 11.1135 14.8533 11.92 14.85C12.13 14.85 12.22 14.91 12.25 15.12C12.32 15.73 12.41 16.34 12.49 16.95C12.49 17.2 12.46 17.22 12.2 17.22ZM19.31 17.5301C19.1635 17.54 19.0165 17.54 18.87 17.5301L16.61 17.45L13.85 17.3401C13.64 17.3401 13.63 17.26 13.57 16.95C13.49 16.46 13.41 15.95 13.36 15.36C13.36 14.99 13.36 14.95 13.55 14.95C14.5203 14.9606 15.4813 15.1399 16.39 15.48C17.3955 15.8326 18.3451 16.3277 19.21 16.95C19.3026 17.0086 19.3897 17.0756 19.47 17.1501C19.492 17.1842 19.5052 17.2232 19.5087 17.2636C19.5122 17.3041 19.5058 17.3448 19.4901 17.3822C19.4743 17.4196 19.4497 17.4526 19.4183 17.4784C19.3869 17.5041 19.3498 17.5219 19.31 17.5301ZM26.07 20.2101H25.61C25.5455 20.2049 25.4854 20.1749 25.4425 20.1264C25.3996 20.0779 25.3772 20.0147 25.38 19.95C25.38 19.67 25.53 19.2801 25.84 19.2801H25.97C26.0186 19.2813 26.0656 19.2973 26.1049 19.3258C26.1442 19.3544 26.1738 19.3942 26.19 19.44C26.242 19.6098 26.2788 19.7838 26.3 19.9601C26.3013 19.9916 26.2965 20.023 26.2856 20.0526C26.2748 20.0823 26.2582 20.1095 26.2368 20.1327C26.2155 20.1559 26.1897 20.1748 26.1611 20.188C26.1325 20.2013 26.1015 20.2088 26.07 20.2101ZM27.17 20.2101H26.77C26.7074 20.2108 26.6467 20.1889 26.599 20.1485C26.5512 20.1081 26.5196 20.0518 26.51 19.99L26.41 19.52C26.4058 19.4909 26.4077 19.4611 26.4157 19.4328C26.4237 19.4044 26.4376 19.3781 26.4565 19.3554C26.4754 19.3328 26.4988 19.3144 26.5252 19.3014C26.5517 19.2884 26.5806 19.2812 26.61 19.2801H26.77C26.8999 19.283 27.0251 19.3286 27.1264 19.4099C27.2276 19.4913 27.2992 19.6038 27.33 19.73L27.39 19.9601C27.3985 19.9919 27.3991 20.0253 27.3916 20.0574C27.3841 20.0895 27.3687 20.1192 27.347 20.144C27.3252 20.1687 27.2976 20.1877 27.2668 20.1992C27.2359 20.2107 27.2027 20.2145 27.17 20.2101Z" fill="#49B8DB"/>
<path d="M109.782 21.7592V24.5831C109.782 25.2246 109.747 25.6918 109.678 25.9846C109.608 26.2775 109.463 26.5512 109.244 26.8057C109.024 27.0602 108.759 27.2432 108.449 27.3548C108.138 27.4663 107.792 27.5221 107.408 27.5221C106.902 27.5221 106.482 27.4646 106.148 27.3495C105.813 27.231 105.546 27.048 105.348 26.8004C105.149 26.5529 105.008 26.2932 104.924 26.0212C104.84 25.7458 104.798 25.31 104.798 24.7139V21.7592C104.798 20.9817 104.865 20.3995 104.997 20.0125C105.133 19.6256 105.4 19.3153 105.797 19.0817C106.198 18.8481 106.683 18.7313 107.251 18.7313C107.715 18.7313 108.13 18.8133 108.496 18.9771C108.862 19.1375 109.135 19.3345 109.317 19.568C109.498 19.8016 109.62 20.0648 109.683 20.3577C109.749 20.6505 109.782 21.1177 109.782 21.7592ZM107.669 21.048C107.669 20.5983 107.647 20.3176 107.602 20.206C107.56 20.091 107.459 20.0335 107.298 20.0335C107.141 20.0335 107.037 20.0945 106.984 20.2165C106.936 20.335 106.911 20.6122 106.911 21.048V25.1793C106.911 25.6709 106.934 25.9672 106.979 26.0683C107.028 26.1694 107.131 26.22 107.288 26.22C107.445 26.22 107.547 26.1607 107.596 26.0422C107.645 25.9236 107.669 25.6569 107.669 25.242V21.048Z" fill="white"/>
<path d="M103.658 18.8934V20.2479H101.038V21.686C101.366 21.299 101.788 21.1055 102.304 21.1055C102.886 21.1055 103.326 21.2694 103.622 21.5971C103.922 21.9213 104.072 22.5471 104.072 23.4745V24.6825C104.072 25.2821 104.042 25.7231 103.983 26.0055C103.927 26.2844 103.805 26.5442 103.617 26.7847C103.428 27.0218 103.165 27.2048 102.827 27.3338C102.492 27.4593 102.083 27.5221 101.598 27.5221C101.054 27.5221 100.575 27.428 100.16 27.2397C99.7451 27.048 99.4505 26.7638 99.2762 26.3873C99.1018 26.0108 99.0147 25.4286 99.0147 24.6406V24.1804H101.127V24.7086C101.127 25.256 101.147 25.6447 101.185 25.8748C101.223 26.1049 101.356 26.22 101.582 26.22C101.687 26.22 101.771 26.1868 101.833 26.1206C101.9 26.0544 101.934 25.9829 101.938 25.9062C101.945 25.8295 101.952 25.4965 101.959 24.9073V23.2287C101.959 22.9114 101.926 22.6953 101.86 22.5802C101.793 22.4652 101.683 22.4077 101.53 22.4077C101.432 22.4077 101.351 22.4373 101.284 22.4966C101.218 22.5558 101.174 22.6203 101.154 22.69C101.136 22.7563 101.127 22.9132 101.127 23.1607H99.0356L99.1245 18.8934H103.658Z" fill="white"/>
<path d="M98.225 18.8934V27.36H96.1123V22.8208C96.1123 22.1654 96.0966 21.7714 96.0653 21.6389C96.0339 21.5064 95.9467 21.4071 95.8038 21.3408C95.6643 21.2711 95.3506 21.2362 94.8625 21.2362H94.6533V20.2479C95.6748 20.0282 96.4505 19.5768 96.9804 18.8934H98.225Z" fill="white"/>
<path d="M91.7535 21.8026V26.2478H92.6322V27.36H90.3083V21.8026H91.7535Z" fill="white"/>
<path d="M85.77 20.65C85.6859 20.2267 85.5177 19.8246 85.2755 19.4673C85.0334 19.1101 84.7221 18.8049 84.36 18.57C84.0585 18.3508 83.7196 18.1882 83.36 18.09C82.8836 17.9579 82.3843 17.9296 81.8961 18.0073C81.4078 18.0849 80.9419 18.2666 80.53 18.54C80.47 18.54 80.35 18.63 80.31 18.6C80.1593 18.4783 80.0157 18.3482 79.88 18.21C79.9236 18.1697 79.9704 18.1328 80.02 18.1C80.4079 17.864 80.8247 17.6792 81.26 17.55C82.1689 17.2701 83.1411 17.2701 84.05 17.55C84.5781 17.698 85.0621 17.9726 85.46 18.35C85.53 18.41 85.58 18.42 85.65 18.35L85.74 18.27C85.7586 18.2571 85.7737 18.24 85.7842 18.2199C85.7947 18.1999 85.8001 18.1776 85.8001 18.155C85.8001 18.1324 85.7947 18.1101 85.7842 18.0901C85.7737 18.0701 85.7586 18.0529 85.74 18.04C85.5843 17.8279 85.4174 17.6243 85.24 17.43C84.7884 17.0433 84.2377 16.7904 83.65 16.7L83.25 16.63V16.58C84.0636 16.3194 84.9161 16.2009 85.77 16.23V16.16C85.49 16.06 85.22 15.93 84.94 15.85C84.3343 15.6757 83.7098 15.575 83.08 15.55C82.0155 15.4678 80.9472 15.6499 79.97 16.08C79.094 16.4741 78.1499 16.6948 77.19 16.73C77.048 16.7407 76.9055 16.7152 76.776 16.6557C76.6466 16.5962 76.5344 16.5048 76.45 16.39C76.3511 16.2696 76.2442 16.156 76.13 16.05C75.7786 15.7661 75.374 15.5553 74.94 15.43C73.696 14.9978 72.3503 14.9525 71.08 15.3L70.78 15.38C70.78 15.33 70.78 15.32 70.78 15.31C71.07 14.88 71.36 14.46 71.66 14.04C71.7017 13.9864 71.7569 13.945 71.82 13.92C72.0726 13.8552 72.3374 13.8552 72.59 13.92C72.736 13.94 72.884 13.94 73.03 13.92C73.0962 13.9078 73.1555 13.8713 73.1962 13.8176C73.2369 13.764 73.2561 13.6971 73.25 13.63C73.25 13.32 73.03 13.32 73.03 13.32H72.67C72.338 13.2771 72.0019 13.2771 71.67 13.32C71.437 13.3903 71.2288 13.5256 71.07 13.71C70.9443 13.8214 70.8303 13.9454 70.73 14.08C70.6951 14.1359 70.6422 14.1782 70.58 14.2L69.46 14.28C69.08 13.97 68.85 14.03 68.85 14.03C68.7854 14.0419 68.7261 14.0733 68.68 14.12C68.6331 14.179 68.599 14.2471 68.58 14.32C68.5 14.6823 68.5 15.0577 68.58 15.42C68.5961 15.4999 68.623 15.5774 68.66 15.65C68.6781 15.6983 68.7091 15.7406 68.7497 15.7724C68.7902 15.8041 68.8388 15.8241 68.89 15.83C69.0454 15.7987 69.1922 15.7339 69.32 15.64L69.58 15.7C69.58 15.7 69.58 15.82 69.58 15.87C69.07 16.63 68.58 17.39 68.04 18.16C67.81 18.5 67.87 18.47 67.48 18.31C66.8446 18.0593 66.1512 17.9934 65.48 18.12C65.4069 18.1378 65.3364 18.1647 65.27 18.2C65.0156 18.2758 64.7681 18.3728 64.53 18.49C64.0521 18.7502 63.6491 19.129 63.36 19.59C62.9693 20.1903 62.7758 20.8975 62.8064 21.6131C62.8369 22.3286 63.09 23.0168 63.5304 23.5816C63.9708 24.1464 64.5765 24.5597 65.263 24.7638C65.9495 24.9678 66.6826 24.9525 67.36 24.72C67.9166 24.5287 68.413 24.1942 68.7993 23.75C69.1855 23.3059 69.4479 22.7678 69.56 22.19C69.7286 21.3498 69.5902 20.4769 69.17 19.73C69.0018 19.4419 68.7853 19.1848 68.53 18.97C68.45 18.9 68.43 18.84 68.53 18.75L69.44 17.43C69.44 17.43 69.5 17.37 69.55 17.32L69.83 18.23C69.8431 18.2645 69.842 18.3027 69.827 18.3364C69.812 18.3701 69.7844 18.3966 69.75 18.41C69.6919 18.4472 69.6496 18.5045 69.6312 18.5709C69.6127 18.6373 69.6194 18.7082 69.65 18.77C69.7054 18.8933 69.7522 19.0203 69.79 19.15L70.15 20.44C70.15 20.56 70.28 20.68 70.4 20.67C70.52 20.66 70.59 20.76 70.62 20.87L70.71 21.2C70.8004 21.6258 71.0413 22.0047 71.3884 22.2674C71.7355 22.53 72.1656 22.6588 72.6 22.63C72.99 22.63 73.38 22.63 73.77 22.63C73.87 22.63 73.92 22.63 73.93 22.77C73.9269 22.805 73.9316 22.8401 73.9435 22.873C73.9555 22.9059 73.9746 22.9359 73.9994 22.9607C74.0241 22.9854 74.054 23.0045 74.087 23.0164C74.1199 23.0284 74.1551 23.0331 74.19 23.03C74.81 23.03 75.43 23.03 76.05 23.03C76.1173 23.0328 76.1831 23.0093 76.2335 22.9646C76.2839 22.9198 76.3149 22.8572 76.32 22.79C76.32 22.65 76.38 22.63 76.5 22.63H77.93C77.9923 22.636 78.0553 22.6284 78.1143 22.6075C78.1734 22.5867 78.2272 22.5531 78.2719 22.5093C78.3167 22.4655 78.3514 22.4124 78.3735 22.3538C78.3956 22.2952 78.4047 22.2325 78.4 22.17C78.405 22.1402 78.405 22.1098 78.4 22.08C78.4 21.97 78.4 21.92 78.56 21.93H78.87C78.98 21.93 79.02 21.93 79.05 22.07C79.121 22.3745 79.218 22.6722 79.34 22.96C79.7064 23.7127 80.3354 24.3055 81.1086 24.6265C81.8817 24.9476 82.7455 24.9748 83.5374 24.7031C84.3292 24.4314 84.9943 23.8795 85.4074 23.1513C85.8205 22.4232 85.953 21.5691 85.78 20.75L85.77 20.65ZM68.52 21.15V21.3C68.5385 21.5495 68.5114 21.8002 68.44 22.04V22.15C68.436 22.1833 68.436 22.2168 68.44 22.25V22.32V22.39V22.45V22.51V22.57V22.62L68.36 22.72V22.78L68.31 22.83C68.2207 22.9246 68.1237 23.0116 68.02 23.09C67.7109 23.3215 67.3486 23.4718 66.9664 23.5271C66.5842 23.5825 66.1942 23.541 65.8322 23.4068C65.4701 23.2725 65.1474 23.0496 64.8937 22.7584C64.6401 22.4672 64.4634 22.1171 64.38 21.74C64.3585 21.651 64.3418 21.5608 64.33 21.47C64.289 21.1784 64.3129 20.8813 64.4 20.6C64.5278 20.1397 64.7958 19.7306 65.1668 19.4295C65.5377 19.1285 65.9932 18.9504 66.47 18.92H66.76C67.032 18.9324 67.2995 18.9933 67.55 19.1H67.62L66.85 20.29C66.829 20.3275 66.802 20.3613 66.77 20.39H66.64C66.4758 20.39 66.3154 20.4387 66.1789 20.5299C66.0424 20.6211 65.936 20.7507 65.8732 20.9024C65.8104 21.054 65.7939 21.2209 65.8259 21.3819C65.858 21.5429 65.937 21.6908 66.0531 21.8069C66.1692 21.923 66.3171 22.0021 66.4781 22.0341C66.6391 22.0661 66.806 22.0497 66.9576 21.9868C67.1093 21.924 67.2389 21.8177 67.3301 21.6812C67.4213 21.5447 67.47 21.3841 67.47 21.22C67.4669 21.0751 67.4255 20.9337 67.35 20.81C67.3757 20.7492 67.4093 20.6921 67.45 20.64C67.69 20.32 67.92 19.99 68.15 19.64L68.24 19.52L68.4 19.7C68.4381 19.7292 68.4689 19.7669 68.49 19.81L68.63 20.03C68.63 20.03 68.63 20.03 68.63 20.08V20.14C68.6359 20.163 68.6359 20.1871 68.63 20.21C68.6685 20.5269 68.6343 20.8484 68.53 21.15H68.52ZM79.63 19.37C79.4028 19.7159 79.2276 20.0933 79.11 20.49C79.11 20.59 79.06 20.7 79.05 20.8C79.04 20.9 78.97 20.98 78.85 20.96H78.77C78.47 20.96 78.47 20.96 78.52 20.65C78.597 20.0238 78.8271 19.4261 79.19 18.91C79.25 18.83 79.29 18.82 79.35 18.91L79.66 19.23C79.6759 19.2512 79.6827 19.2779 79.679 19.3042C79.6752 19.3304 79.6612 19.3541 79.64 19.37H79.63ZM84.69 21.86C84.62 22.269 84.4353 22.6497 84.1573 22.9577C83.8794 23.2658 83.5196 23.4885 83.12 23.6C82.601 23.7689 82.0387 23.7469 81.5345 23.5379C81.0303 23.3288 80.6173 22.9466 80.37 22.46C80.3014 22.3148 80.2445 22.1643 80.2 22.01C80.14 21.84 80.2 21.83 80.34 21.83H81.63C81.7142 21.8424 81.7935 21.8769 81.86 21.93C81.9737 22.0418 82.1178 22.1176 82.2743 22.1478C82.4309 22.1781 82.5929 22.1614 82.74 22.1C82.8958 22.0302 83.024 21.9107 83.1044 21.7601C83.1848 21.6095 83.213 21.4365 83.1843 21.2682C83.1557 21.0999 83.072 20.9459 82.9463 20.8303C82.8206 20.7148 82.6601 20.6444 82.49 20.63C82.4286 20.632 82.3676 20.6194 82.312 20.5933C82.2564 20.5673 82.2077 20.5284 82.17 20.48L81.23 19.57C81.15 19.5 81.13 19.46 81.23 19.4C81.6163 19.1728 82.0602 19.0624 82.5079 19.0821C82.9556 19.1017 83.3881 19.2506 83.753 19.5108C84.1179 19.771 84.3996 20.1313 84.5642 20.5482C84.7287 20.9651 84.7689 21.4207 84.68 21.86H84.69Z" fill="#49B8DB"/>
<path d="M91.8581 4.83363C91.8581 5.37286 91.7607 5.83887 91.566 6.23164C91.3713 6.62442 91.1042 6.92732 90.7646 7.14035C90.4251 7.35338 90.0373 7.4599 89.6013 7.4599C89.1653 7.4599 88.7775 7.35338 88.438 7.14035C88.0984 6.92732 87.8313 6.62442 87.6366 6.23164C87.4419 5.83887 87.3445 5.37286 87.3445 4.83363C87.3445 4.2944 87.4419 3.82839 87.6366 3.43562C87.8313 3.04285 88.0984 2.73994 88.438 2.52691C88.7775 2.31388 89.1653 2.20737 89.6013 2.20737C90.0373 2.20737 90.4251 2.31388 90.7646 2.52691C91.1042 2.73994 91.3713 3.04285 91.566 3.43562C91.7607 3.82839 91.8581 4.2944 91.8581 4.83363ZM91.2589 4.83363C91.2589 4.39093 91.1849 4.01729 91.0368 3.71273C90.8903 3.40816 90.6914 3.17765 90.4401 3.02121C90.1905 2.86477 89.9109 2.78654 89.6013 2.78654C89.2917 2.78654 89.0113 2.86477 88.76 3.02121C88.5104 3.17765 88.3115 3.40816 88.1633 3.71273C88.0169 4.01729 87.9437 4.39093 87.9437 4.83363C87.9437 5.27634 88.0169 5.64997 88.1633 5.95454C88.3115 6.2591 88.5104 6.48961 88.76 6.64605C89.0113 6.8025 89.2917 6.88072 89.6013 6.88072C89.9109 6.88072 90.1905 6.8025 90.4401 6.64605C90.6914 6.48961 90.8903 6.2591 91.0368 5.95454C91.1849 5.64997 91.2589 5.27634 91.2589 4.83363Z" fill="white"/>
<path d="M81.29 2.27725H82.0289L83.7665 6.52122H83.8264L85.5639 2.27725H86.3028V7.38998H85.7237V3.50551H85.6737L84.076 7.38998H83.5168L81.9191 3.50551H81.8692V7.38998H81.29V2.27725Z" fill="white"/>
<path d="M80.0486 2.27725V7.38998H79.4295V2.27725H80.0486Z" fill="white"/>
<path d="M78.1906 2.27725V7.38998H77.5915L74.8055 3.37569H74.7555V7.38998H74.1364V2.27725H74.7356L77.5316 6.30153H77.5815V2.27725H78.1906Z" fill="white"/>
<path d="M72.8951 2.27725V7.38998H72.2759V2.27725H72.8951ZM72.3159 1.75799L72.925 0.59964H73.614L72.8351 1.75799H72.3159Z" fill="white"/>
<path d="M66.0217 2.27725H66.7607L68.4982 6.52122H68.5581L70.2956 2.27725H71.0346V7.38998H70.4554V3.50551H70.4055L68.8078 7.38998H68.2485L66.6508 3.50551H66.6009V7.38998H66.0217V2.27725Z" fill="white"/>
<path d="M63.0035 4.83363C63.0035 5.37286 62.9061 5.83887 62.7114 6.23164C62.5167 6.62442 62.2496 6.92732 61.9101 7.14035C61.5705 7.35338 61.1828 7.4599 60.7467 7.4599C60.3107 7.4599 59.9229 7.35338 59.5834 7.14035C59.2439 6.92732 58.9767 6.62442 58.782 6.23164C58.5873 5.83887 58.4899 5.37286 58.4899 4.83363C58.4899 4.2944 58.5873 3.82839 58.782 3.43562C58.9767 3.04285 59.2439 2.73994 59.5834 2.52691C59.9229 2.31388 60.3107 2.20737 60.7467 2.20737C61.1828 2.20737 61.5705 2.31388 61.9101 2.52691C62.2496 2.73994 62.5167 3.04285 62.7114 3.43562C62.9061 3.82839 63.0035 4.2944 63.0035 4.83363ZM62.4044 4.83363C62.4044 4.39093 62.3303 4.01729 62.1822 3.71273C62.0357 3.40816 61.8368 3.17765 61.5855 3.02121C61.3359 2.86477 61.0563 2.78654 60.7467 2.78654C60.4372 2.78654 60.1567 2.86477 59.9054 3.02121C59.6558 3.17765 59.4569 3.40816 59.3088 3.71273C59.1623 4.01729 59.0891 4.39093 59.0891 4.83363C59.0891 5.27634 59.1623 5.64997 59.3088 5.95454C59.4569 6.2591 59.6558 6.48961 59.9054 6.64605C60.1567 6.8025 60.4372 6.88072 60.7467 6.88072C61.0563 6.88072 61.3359 6.8025 61.5855 6.64605C61.8368 6.48961 62.0357 6.2591 62.1822 5.95454C62.3303 5.64997 62.4044 5.27634 62.4044 4.83363Z" fill="white"/>
<path d="M52.4354 2.27725H53.1744L54.9119 6.52122H54.9718L56.7093 2.27725H57.4483V7.38998H56.8691V3.50551H56.8192L55.2214 7.38998H54.6622L53.0645 3.50551H53.0146V7.38998H52.4354V2.27725Z" fill="white"/>
<path d="M50.5799 2.27725H51.199V5.66244C51.199 6.01194 51.1167 6.324 50.9519 6.59861C50.7888 6.87155 50.5583 7.08708 50.2604 7.24519C49.9625 7.40163 49.613 7.47985 49.2119 7.47985C48.8108 7.47985 48.4613 7.40163 48.1634 7.24519C47.8655 7.08708 47.6341 6.87155 47.4694 6.59861C47.3063 6.324 47.2247 6.01194 47.2247 5.66244V2.27725H47.8438V5.61251C47.8438 5.86215 47.8987 6.08434 48.0086 6.27906C48.1184 6.47212 48.2749 6.6244 48.4779 6.73591C48.6826 6.84575 48.9273 6.90068 49.2119 6.90068C49.4965 6.90068 49.7411 6.84575 49.9458 6.73591C50.1505 6.6244 50.307 6.47212 50.4152 6.27906C50.525 6.08434 50.5799 5.86215 50.5799 5.61251V2.27725Z" fill="white"/>
<path d="M45.5377 3.55545C45.5078 3.30248 45.3863 3.10609 45.1732 2.96629C44.9602 2.82649 44.6989 2.75659 44.3893 2.75659C44.163 2.75659 43.965 2.7932 43.7952 2.86643C43.6271 2.93966 43.4956 3.04035 43.4008 3.1685C43.3076 3.29665 43.261 3.44228 43.261 3.60538C43.261 3.74185 43.2934 3.85918 43.3583 3.95738C43.4249 4.05391 43.5098 4.13463 43.613 4.19953C43.7161 4.26278 43.8243 4.3152 43.9375 4.35681C44.0507 4.39675 44.1547 4.42921 44.2495 4.45417L44.7688 4.59397C44.902 4.62892 45.0501 4.67719 45.2132 4.73877C45.3779 4.80035 45.5352 4.88439 45.685 4.99091C45.8365 5.09576 45.9613 5.23057 46.0595 5.39533C46.1577 5.5601 46.2068 5.76231 46.2068 6.00197C46.2068 6.27824 46.1344 6.52789 45.9896 6.7509C45.8464 6.97392 45.6367 7.15117 45.3605 7.28265C45.0859 7.41413 44.7522 7.47987 44.3594 7.47987C43.9932 7.47987 43.6762 7.42078 43.4082 7.30262C43.142 7.18445 42.9323 7.01969 42.7791 6.80832C42.6277 6.59696 42.542 6.35147 42.522 6.07187H43.1611C43.1777 6.26493 43.2426 6.4247 43.3558 6.55119C43.4707 6.67601 43.6154 6.76921 43.7902 6.83079C43.9666 6.89071 44.1563 6.92066 44.3594 6.92066C44.5957 6.92066 44.8079 6.88238 44.996 6.80583C45.1841 6.7276 45.333 6.61942 45.4429 6.48129C45.5527 6.34149 45.6076 6.17839 45.6076 5.99198C45.6076 5.82223 45.5602 5.68409 45.4653 5.57757C45.3705 5.47106 45.2456 5.38451 45.0908 5.31794C44.9361 5.25137 44.7688 5.19312 44.5891 5.14319L43.96 4.96345C43.5605 4.84861 43.2443 4.68468 43.0113 4.47165C42.7783 4.25862 42.6618 3.97985 42.6618 3.63534C42.6618 3.34908 42.7392 3.09943 42.894 2.8864C43.0504 2.67171 43.2601 2.50528 43.5231 2.38711C43.7877 2.26728 44.0831 2.20737 44.4093 2.20737C44.7389 2.20737 45.0318 2.26645 45.2881 2.38461C45.5444 2.50112 45.7474 2.66089 45.8972 2.86393C46.0487 3.06698 46.1285 3.29748 46.1369 3.55545H45.5377Z" fill="white"/>
<path d="M41.5028 2.27725V7.38998H40.9037L38.1177 3.37569H38.0677V7.38998H37.4486V2.27725H38.0478L40.8438 6.30153H40.8937V2.27725H41.5028Z" fill="white"/>
<path d="M36.4076 4.83363C36.4076 5.37286 36.3102 5.83887 36.1155 6.23164C35.9208 6.62442 35.6537 6.92732 35.3141 7.14035C34.9746 7.35338 34.5868 7.4599 34.1508 7.4599C33.7148 7.4599 33.327 7.35338 32.9875 7.14035C32.6479 6.92732 32.3808 6.62442 32.1861 6.23164C31.9914 5.83887 31.894 5.37286 31.894 4.83363C31.894 4.2944 31.9914 3.82839 32.1861 3.43562C32.3808 3.04285 32.6479 2.73994 32.9875 2.52691C33.327 2.31388 33.7148 2.20737 34.1508 2.20737C34.5868 2.20737 34.9746 2.31388 35.3141 2.52691C35.6537 2.73994 35.9208 3.04285 36.1155 3.43562C36.3102 3.82839 36.4076 4.2944 36.4076 4.83363ZM35.8084 4.83363C35.8084 4.39093 35.7344 4.01729 35.5863 3.71273C35.4398 3.40816 35.2409 3.17765 34.9896 3.02121C34.74 2.86477 34.4604 2.78654 34.1508 2.78654C33.8412 2.78654 33.5608 2.86477 33.3095 3.02121C33.0599 3.17765 32.861 3.40816 32.7128 3.71273C32.5664 4.01729 32.4932 4.39093 32.4932 4.83363C32.4932 5.27634 32.5664 5.64997 32.7128 5.95454C32.861 6.2591 33.0599 6.48961 33.3095 6.64605C33.5608 6.8025 33.8412 6.88072 34.1508 6.88072C34.4604 6.88072 34.74 6.8025 34.9896 6.64605C35.2409 6.48961 35.4398 6.2591 35.5863 5.95454C35.7344 5.64997 35.8084 5.27634 35.8084 4.83363Z" fill="white"/>
<path d="M31.0933 3.87499H30.4741C30.4375 3.69691 30.3735 3.54047 30.2819 3.40566C30.192 3.27085 30.0822 3.15768 29.9524 3.06615C29.8242 2.97294 29.6819 2.90304 29.5255 2.85644C29.3691 2.80984 29.206 2.78654 29.0362 2.78654C28.7266 2.78654 28.4462 2.86477 28.1949 3.02121C27.9452 3.17765 27.7464 3.40816 27.5982 3.71273C27.4518 4.01729 27.3786 4.39093 27.3786 4.83363C27.3786 5.27634 27.4518 5.64997 27.5982 5.95454C27.7464 6.2591 27.9452 6.48961 28.1949 6.64605C28.4462 6.8025 28.7266 6.88072 29.0362 6.88072C29.206 6.88072 29.3691 6.85742 29.5255 6.81082C29.6819 6.76422 29.8242 6.69515 29.9524 6.60361C30.0822 6.51041 30.192 6.39641 30.2819 6.2616C30.3735 6.12513 30.4375 5.96868 30.4741 5.79227H31.0933C31.0467 6.05356 30.9618 6.2874 30.8386 6.49377C30.7155 6.70014 30.5624 6.87573 30.3793 7.02052C30.1962 7.16365 29.9907 7.27266 29.7627 7.34756C29.5363 7.42245 29.2942 7.4599 29.0362 7.4599C28.6001 7.4599 28.2124 7.35338 27.8728 7.14035C27.5333 6.92732 27.2662 6.62442 27.0715 6.23164C26.8768 5.83887 26.7794 5.37286 26.7794 4.83363C26.7794 4.2944 26.8768 3.82839 27.0715 3.43562C27.2662 3.04285 27.5333 2.73994 27.8728 2.52691C28.2124 2.31388 28.6001 2.20737 29.0362 2.20737C29.2942 2.20737 29.5363 2.24481 29.7627 2.31971C29.9907 2.3946 30.1962 2.50444 30.3793 2.64924C30.5624 2.79237 30.7155 2.96712 30.8386 3.17349C30.9618 3.3782 31.0467 3.61204 31.0933 3.87499Z" fill="white"/>
</svg>
