<svg width="175" height="94" viewBox="0 0 175 94" fill="none" xmlns="http://www.w3.org/2000/svg">
<path d="M49.2617 93.41H43.8317L45.9017 83.66H51.2217L50.9117 85.16H47.6317L47.1217 87.56H50.1217L49.8017 89.06H46.8017L46.2117 91.91H49.6017L49.2617 93.41Z" fill="white"/>
<path d="M57.2018 90.75C57.1291 91.2407 56.9453 91.7083 56.6646 92.1173C56.3839 92.5263 56.0135 92.8658 55.5817 93.11C54.8335 93.4528 54.0138 93.6106 53.1917 93.57C51.5817 93.57 50.7817 92.95 50.7817 91.71C50.789 91.2663 50.8563 90.8257 50.9818 90.4H52.9818C52.916 90.696 52.8759 90.9971 52.8618 91.3C52.8618 91.84 53.1617 92.11 53.7717 92.11C53.9454 92.1138 54.118 92.081 54.2782 92.0138C54.4384 91.9466 54.5827 91.8465 54.7018 91.72C54.8223 91.5974 54.9171 91.4521 54.9806 91.2924C55.0442 91.1326 55.0751 90.9618 55.0717 90.79C55.0717 90.4 54.8017 90.01 54.2517 89.62L52.7117 88.52C52.458 88.3119 52.2524 88.0513 52.1091 87.7561C51.9658 87.4608 51.8883 87.1381 51.8817 86.81C51.8868 86.6182 51.9102 86.4273 51.9518 86.24C52.3451 84.4133 53.6084 83.5 55.7417 83.5C57.3417 83.5 58.1317 84.1 58.1317 85.29C58.127 85.6759 58.0698 86.0595 57.9617 86.43H55.9617C56.015 86.2036 56.0452 85.9725 56.0517 85.74C56.0517 85.22 55.8117 84.96 55.3317 84.96C55.032 84.9313 54.7328 85.0192 54.4963 85.2054C54.2597 85.3917 54.1041 85.6619 54.0617 85.96C54.0521 86.0397 54.0521 86.1203 54.0617 86.2C54.0617 86.6 54.3418 86.98 54.8918 87.35L56.4317 88.35C56.687 88.5583 56.8929 88.8206 57.0347 89.118C57.1765 89.4154 57.2506 89.7405 57.2517 90.07C57.2635 90.2979 57.2467 90.5263 57.2018 90.75Z" fill="white"/>
<path d="M59.3918 83.66H65.9717L65.6317 85.28H63.3618L61.6317 93.41H59.6317L61.3618 85.28H59.0917L59.3918 83.66Z" fill="white"/>
<path d="M66.1118 93.41H64.1118L68.8817 83.66H71.5717L72.1517 93.41H70.0017L69.9218 91.25H67.1418L66.1118 93.41ZM69.8017 89.75L69.7117 85.54L67.8918 89.75H69.8017Z" fill="white"/>
<path d="M78.0017 93.41H76.1118L78.1718 83.66H80.9317L82.0917 90.41L83.5217 83.66H85.4717L83.4017 93.41H80.7117L79.5617 86.28L78.0017 93.41Z" fill="white"/>
<path d="M86.3717 93.41H84.3717L89.1317 83.66H91.8217L92.4017 93.41H90.2517L90.1718 91.25H87.3918L86.3717 93.41ZM90.0517 89.75L89.9617 85.54L88.1418 89.75H90.0517Z" fill="white"/>
<path d="M94.9717 93.41L94.6317 83.66H96.7517V90.75L99.9518 83.66H101.952L97.3017 93.41H94.9717Z" fill="white"/>
<path d="M102.902 93.41H100.902L102.902 83.66H104.962L102.902 93.41Z" fill="white"/>
<path d="M104.652 93.41L106.722 83.66H110.122C110.469 83.6271 110.819 83.6651 111.15 83.7717C111.482 83.8783 111.789 84.0512 112.052 84.28C112.458 84.7721 112.656 85.404 112.602 86.04C112.577 86.862 112.47 87.6795 112.282 88.48C112.085 89.5204 111.749 90.5295 111.282 91.48C110.962 92.0806 110.479 92.5781 109.887 92.9145C109.296 93.2509 108.621 93.4123 107.942 93.38L104.652 93.41ZM108.452 85.16L107.012 91.91H108.012C108.287 91.9179 108.559 91.8504 108.799 91.7146C109.039 91.5789 109.237 91.3802 109.372 91.14C109.783 90.3216 110.067 89.4446 110.212 88.54C110.384 87.8275 110.494 87.1015 110.542 86.37C110.542 85.56 110.192 85.16 109.542 85.16H108.452Z" fill="white"/>
<path d="M114.132 93.41H112.132L116.902 83.66H119.582L120.162 93.41H118.022L117.932 91.25H115.152L114.132 93.41ZM117.822 89.75L117.722 85.54L115.892 89.75H117.822Z" fill="white"/>
<path d="M121.152 93.41L123.222 83.66H126.622C126.969 83.6271 127.319 83.6651 127.65 83.7717C127.982 83.8783 128.289 84.0512 128.552 84.28C128.961 84.7711 129.162 85.4027 129.112 86.04C129.083 86.8623 128.972 87.6796 128.782 88.48C128.585 89.5204 128.249 90.5295 127.782 91.48C127.462 92.0806 126.979 92.5781 126.387 92.9145C125.796 93.2509 125.121 93.4123 124.442 93.38L121.152 93.41ZM124.952 85.16L123.472 91.91H124.472C124.747 91.9179 125.019 91.8504 125.259 91.7146C125.499 91.5789 125.697 91.3802 125.832 91.14C126.243 90.3216 126.527 89.4446 126.672 88.54C126.844 87.8275 126.954 87.1015 127.002 86.37C127.002 85.56 126.652 85.16 126.002 85.16H124.952Z" fill="white"/>
<path d="M4.04175 69.09C3.98175 68.95 3.92173 68.82 3.87173 68.68C4.09102 69.479 4.48365 70.2199 5.02173 70.85C4.64267 70.2941 4.31469 69.705 4.04175 69.09ZM0.951752 54.9C0.655685 55.5582 0.440758 56.2499 0.311737 56.96C0.46949 56.2573 0.683528 55.5684 0.951752 54.9ZM0.281738 57.08C0.195072 57.5733 0.12508 58.1033 0.0717468 58.67L0.281738 57.08Z" fill="white"/>
<path d="M41.6217 58.02C41.4012 60.8273 40.5829 63.5549 39.2217 66.02C37.8768 68.4702 36.094 70.653 33.9617 72.46C31.7783 74.3046 29.2868 75.7501 26.6017 76.73C23.792 77.7703 20.8178 78.2953 17.8217 78.28C14.8364 78.3749 11.8704 77.7687 9.16173 76.51C6.94798 75.4387 5.01626 73.8632 3.52171 71.91C2.11572 70.034 1.11769 67.8846 0.591722 65.6C0.061426 63.3273 -0.113972 60.9863 0.0717328 58.66L0.281724 57.07V56.95C0.439477 56.2473 0.653515 55.5584 0.921739 54.89C1.76174 52.73 3.52174 49.57 6.92174 48.3C8.29305 47.7682 9.76412 47.5429 11.2317 47.64C14.6917 47.93 16.5317 50.97 16.2317 54.13C16.1404 55.0651 15.8185 55.9629 15.2949 56.743C14.7714 57.5231 14.0625 58.1612 13.2317 58.6L12.7717 58.83C8.29171 60.4 8.53173 58.04 5.25173 60.17C2.73173 61.81 2.98172 65.99 3.87172 68.68C4.091 69.479 4.48364 70.2199 5.02171 70.85C5.5896 71.6853 6.26168 72.4447 7.02171 73.11C8.37077 74.2674 9.92406 75.1627 11.6017 75.75C13.3749 76.3739 15.242 76.6884 17.1217 76.68C18.9566 76.6984 20.7741 76.3233 22.4517 75.58C24.0587 74.8709 25.5098 73.8514 26.7217 72.58C27.9667 71.2822 28.9632 69.7672 29.6617 68.11C30.4088 66.3731 30.8649 64.5251 31.0117 62.64C31.2617 60.172 30.869 57.6813 29.8717 55.41C28.8596 53.1885 27.5583 51.1105 26.0017 49.23C24.4017 47.2833 22.6751 45.3533 20.8217 43.44C18.9707 41.5537 17.2437 39.5495 15.6517 37.44C14.0605 35.3362 12.7776 33.0162 11.8417 30.55C10.8763 27.855 10.5344 24.9762 10.8417 22.13C11.0052 19.7931 11.5525 17.499 12.4617 15.34C13.2566 13.4233 14.3802 11.6601 15.7817 10.13C17.066 8.73821 18.6121 7.61342 20.3317 6.82001C21.974 6.05912 23.7618 5.66336 25.5717 5.66C26.4521 5.64626 27.3312 5.7335 28.1917 5.92001C28.841 6.06927 29.4791 6.26305 30.1017 6.5L31.6317 7.08C32.1229 7.25344 32.6409 7.33809 33.1617 7.33C33.9183 7.35805 34.6673 7.1708 35.3217 6.79001C35.8874 6.44469 36.3745 5.98483 36.7517 5.44C37.1212 4.89398 37.4109 4.29797 37.6117 3.67001C37.8117 3.02001 37.9617 2.43001 38.0717 1.90001C38.1817 1.37001 38.2817 0.900003 38.3817 0.550003C38.4817 0.200003 38.6017 0 38.7717 0C39.2917 0 39.5817 0.0600024 39.6617 0.190002C39.7415 0.636472 39.7415 1.09354 39.6617 1.54001C39.6617 1.80001 39.5817 2.54 39.5117 3.8C39.4417 5.06 39.3317 6.52001 39.2417 8.23001C39.1517 9.94001 39.0417 11.79 38.9417 13.77C38.8417 15.75 38.7517 17.57 38.6517 19.27C38.5517 20.97 38.4717 22.4 38.3917 23.58C38.3117 24.76 38.2717 25.43 38.2617 25.58C38.2231 26.0554 38.1188 26.5232 37.9517 26.97C37.7917 27.37 37.5617 27.58 37.2617 27.58C37.0567 27.6079 36.8484 27.5618 36.6743 27.45C36.5002 27.3382 36.3717 27.168 36.3117 26.97C36.1912 26.5171 36.1539 26.0462 36.2017 25.58C36.357 23.5177 36.2461 21.444 35.8717 19.41C35.5097 17.3465 34.8353 15.3503 33.8717 13.49C33.0247 11.7866 31.8368 10.2754 30.3817 9.05C28.9757 7.89263 27.2025 7.27557 25.3817 7.31001C24.6152 7.31273 23.8582 7.47981 23.1617 7.8C22.4111 8.13786 21.7322 8.6165 21.1617 9.21001C20.5344 9.85547 20.0265 10.6071 19.6617 11.43C19.2531 12.3222 19.0092 13.281 18.9417 14.26C18.7147 16.7496 19.1747 19.2537 20.2717 21.5C21.4512 23.8661 22.9008 26.0876 24.5917 28.12C26.3651 30.2933 28.2984 32.47 30.3917 34.65C32.4565 36.8104 34.3836 39.0982 36.1617 41.5C37.8958 43.8497 39.3177 46.4144 40.3917 49.13C41.482 51.9588 41.903 55.0015 41.6217 58.02Z" fill="white"/>
<path d="M59.4717 35.73C57.5792 35.6882 55.7331 36.3189 54.2617 37.51C53.5378 38.0875 52.9449 38.8123 52.5225 39.6364C52.1001 40.4605 51.8578 41.3651 51.8117 42.29C51.7719 42.7824 51.8262 43.2779 51.9717 43.75C52.1317 44.26 52.3017 44.75 52.5117 45.3C52.7217 45.85 52.8817 46.35 53.0317 46.88C53.1792 47.3928 53.2333 47.928 53.1917 48.46C53.1624 48.9132 53.0267 49.353 52.7956 49.7439C52.5645 50.1349 52.2446 50.4658 51.8617 50.71C51.1459 51.2318 50.2873 51.5215 49.4017 51.54C48.8628 51.612 48.3148 51.5138 47.8343 51.2592C47.3538 51.0046 46.9649 50.6064 46.7217 50.12C46.2787 49.024 46.1205 47.8337 46.2617 46.66C46.4103 45.2084 46.8203 43.7957 47.4717 42.49C48.2052 40.9679 49.1965 39.5842 50.4017 38.4C51.7151 37.1005 53.2533 36.0502 54.9417 35.3C56.8681 34.4512 58.9571 34.0347 61.0617 34.08C62.8144 34.0721 64.5513 34.412 66.1717 35.08C67.7181 35.7357 69.0884 36.7463 70.1717 38.03C71.3625 39.4638 72.2199 41.1443 72.6817 42.95C73.2507 45.1962 73.4199 47.5251 73.1817 49.83L71.4717 71.13C71.4183 71.5303 71.5144 71.9362 71.7417 72.27C71.8865 72.4973 72.0906 72.6808 72.3321 72.8007C72.5735 72.9205 72.8431 72.9722 73.1117 72.95H79.4717C79.9417 72.95 80.1617 73.42 80.1217 73.95C80.0817 74.48 79.8717 74.7 79.5117 74.7H65.7917C65.398 74.7062 65.0075 74.6291 64.6457 74.4735C64.284 74.318 63.9593 74.0877 63.6929 73.7977C63.4265 73.5078 63.2246 73.1647 63.1003 72.7911C62.976 72.4174 62.9322 72.0218 62.9717 71.63C62.0169 72.7411 60.8597 73.6607 59.5617 74.34C58.0169 75.133 56.2976 75.525 54.5617 75.48C51.1551 75.48 48.5384 74.76 46.7117 73.32C45.8021 72.5778 45.1028 71.6102 44.6835 70.5136C44.2642 69.417 44.1395 68.2298 44.3217 67.07C44.4077 65.5345 44.8788 64.0454 45.6917 62.74C46.4918 61.5152 47.4846 60.4278 48.6317 59.52C49.8841 58.5346 51.2228 57.6645 52.6317 56.92L57.0417 54.56C58.5217 53.77 59.9317 52.95 61.2917 52.08C62.6231 51.2532 63.8316 50.2433 64.8817 49.08L65.0517 47.08C65.4069 44.2943 65.1649 41.4649 64.3417 38.78C63.5551 36.7467 61.9317 35.73 59.4717 35.73ZM56.9817 73.17C57.7837 73.1781 58.577 73.0037 59.3017 72.66C59.9949 72.3348 60.6195 71.88 61.1417 71.32C61.6558 70.7757 62.1024 70.1713 62.4717 69.52C63.0327 68.5239 63.3737 67.419 63.4717 66.28L64.6517 51.88C63.6249 53.2596 62.4513 54.5236 61.1517 55.65C59.8817 56.75 58.6617 57.87 57.5017 58.99C56.3557 60.0827 55.3482 61.3118 54.5017 62.65C53.6426 64.1121 53.1422 65.7571 53.0417 67.45C52.8235 68.9422 53.181 70.4616 54.0417 71.7C54.3781 72.153 54.8152 72.5217 55.3185 72.7768C55.8218 73.0319 56.3775 73.1665 56.9417 73.17H56.9817ZM63.7317 65.7C63.6217 65.7 63.6217 65.75 63.7317 65.86V65.7Z" fill="white"/>
<path d="M97.4718 72.28C97.4536 71.8956 97.4737 71.5104 97.5318 71.13L99.8518 42.95C100.106 41.4499 99.7806 39.9093 98.9418 38.64C98.5585 38.1699 98.0701 37.7965 97.516 37.5498C96.9619 37.3031 96.3576 37.1902 95.7518 37.22C94.7772 37.2566 93.8405 37.6074 93.0817 38.22C92.1964 38.866 91.3937 39.6183 90.6918 40.46L88.2417 70.29C88.0949 71.0264 88.2117 71.791 88.5718 72.45C88.7567 72.658 88.9878 72.8197 89.2466 72.9222C89.5054 73.0246 89.7846 73.065 90.0617 73.04H92.5718C92.6928 73.1746 92.7838 73.3333 92.839 73.5057C92.8942 73.6781 92.9122 73.8602 92.8918 74.04C92.8741 74.1777 92.8242 74.3093 92.746 74.424C92.6677 74.5387 92.5635 74.6333 92.4418 74.7H75.3818C75.2695 74.662 75.1735 74.5867 75.1099 74.4867C75.0462 74.3866 75.0186 74.2679 75.0318 74.15C75.0561 73.9636 75.0962 73.7796 75.1517 73.6C75.2063 73.3813 75.3332 73.1875 75.5118 73.05L77.3017 72.97C77.6228 72.9892 77.9443 72.9393 78.2444 72.8237C78.5446 72.7082 78.8165 72.5296 79.0418 72.3C79.3597 71.7954 79.5166 71.2059 79.4917 70.61L81.7818 42.82C81.848 42.2815 81.7541 41.7354 81.5118 41.25C81.2818 40.84 81.0118 40.63 80.7018 40.63C80.5029 40.603 80.3004 40.6284 80.1145 40.7039C79.9285 40.7793 79.7656 40.9021 79.6418 41.06C79.5874 41.1755 79.5049 41.2753 79.4018 41.3505C79.2987 41.4256 79.1783 41.4736 79.0517 41.49C78.5817 41.49 78.3717 41.25 78.4017 40.78C78.4017 40.68 78.4017 40.49 78.4917 40.23C78.5263 40.0038 78.6117 39.7883 78.7417 39.6C80.2406 39.2839 81.7094 38.8389 83.1318 38.27C84.4118 37.75 85.5017 37.27 86.4017 36.78C87.3017 36.29 88.0518 35.9 88.6318 35.56C89.0072 35.2958 89.4383 35.1214 89.8918 35.05C90.0499 35.0521 90.2058 35.088 90.3489 35.1553C90.4921 35.2226 90.6192 35.3196 90.7218 35.44C90.8571 35.6326 90.9518 35.8507 90.9999 36.0811C91.0481 36.3115 91.0487 36.5494 91.0018 36.78L90.9118 37.88C91.7656 37.1086 92.7051 36.4375 93.7117 35.88C94.8306 35.2604 96.093 34.9466 97.3717 34.97C100.992 34.97 103.745 35.9133 105.632 37.8C107.518 39.6867 108.282 42.8533 107.922 47.3L105.972 71C105.935 71.4819 106.047 71.9634 106.292 72.38C106.426 72.6047 106.622 72.7868 106.855 72.9053C107.089 73.0239 107.351 73.074 107.612 73.05H109.732C109.876 73.1701 109.987 73.3249 110.056 73.4997C110.124 73.6746 110.147 73.8639 110.122 74.05C110.103 74.1967 110.044 74.3355 109.953 74.4517C109.861 74.5679 109.74 74.6571 109.602 74.71H99.9617C99.3116 74.7102 98.6872 74.4561 98.2219 74.002C97.7567 73.548 97.4874 72.93 97.4718 72.28Z" fill="white"/>
<path d="M132.242 68.61C131.932 69.4525 131.482 70.2368 130.912 70.93C131.748 69.9413 132.322 68.7584 132.582 67.49C132.489 67.8693 132.376 68.2432 132.242 68.61Z" fill="white"/>
<path d="M152.722 35.73C150.829 35.6882 148.983 36.3189 147.512 37.51C146.79 38.0892 146.198 38.8144 145.776 39.6382C145.354 40.4619 145.11 41.3656 145.062 42.29C145.025 42.783 145.083 43.2785 145.232 43.75C145.382 44.26 145.552 44.75 145.762 45.3C145.972 45.85 146.142 46.35 146.292 46.88C146.436 47.3934 146.487 47.9286 146.442 48.46C146.412 48.9119 146.277 49.3506 146.048 49.7412C145.819 50.1318 145.502 50.4635 145.122 50.71C144.402 51.232 143.54 51.5216 142.652 51.54C142.113 51.612 141.565 51.5138 141.084 51.2592C140.604 51.0046 140.215 50.6064 139.972 50.12C139.529 49.024 139.37 47.8337 139.512 46.66C139.66 45.2084 140.07 43.7957 140.722 42.49C141.459 40.97 142.45 39.5869 143.652 38.4C144.967 37.1027 146.505 36.0527 148.192 35.3C150.118 34.4512 152.207 34.0347 154.312 34.08C156.065 34.0713 157.802 34.4112 159.422 35.08C160.984 35.7326 162.371 36.7431 163.472 38.03C164.659 39.4646 165.513 41.1451 165.972 42.95C166.545 45.1922 166.714 47.5185 166.472 49.82L164.722 71.14C164.68 71.6191 164.792 72.099 165.042 72.51C165.175 72.7355 165.371 72.9183 165.604 73.037C165.838 73.1556 166.101 73.2052 166.362 73.18H168.362C168.842 73.18 169.052 73.43 169.012 73.93C168.972 74.43 168.762 74.68 168.402 74.68H159.132C158.737 74.6877 158.346 74.6115 157.983 74.4567C157.62 74.3018 157.294 74.0717 157.026 73.7815C156.759 73.4914 156.556 73.1478 156.431 72.7735C156.306 72.3992 156.262 72.0026 156.302 71.61C155.349 72.7234 154.191 73.6434 152.892 74.32C151.347 75.113 149.628 75.505 147.892 75.46C144.478 75.46 141.865 74.74 140.052 73.3C139.139 72.5602 138.436 71.5933 138.015 70.4963C137.594 69.3992 137.469 68.2107 137.652 67.05C137.745 65.5145 138.22 64.0265 139.032 62.72C139.829 61.4929 140.822 60.4051 141.972 59.5C143.207 58.5151 144.529 57.6449 145.922 56.9C147.372 56.11 148.842 55.33 150.322 54.54C151.802 53.75 153.222 52.93 154.572 52.06C155.904 51.231 157.116 50.2214 158.172 49.06L158.332 47.06C158.69 44.275 158.451 41.4457 157.632 38.76C156.858 36.74 155.222 35.73 152.722 35.73ZM150.232 73.17C151.034 73.1781 151.827 73.0037 152.552 72.66C153.248 72.3346 153.876 71.8799 154.402 71.32C154.91 70.7728 155.353 70.1688 155.722 69.52C156.287 68.5255 156.628 67.4198 156.722 66.28L157.902 51.88C156.876 53.257 155.706 54.5208 154.412 55.65C153.142 56.75 151.922 57.87 150.752 58.99C149.606 60.0827 148.598 61.3118 147.752 62.65C146.891 64.111 146.394 65.7571 146.302 67.45C146.064 68.936 146.404 70.4567 147.252 71.7C147.594 72.1658 148.044 72.5424 148.563 72.7982C149.081 73.0541 149.654 73.1816 150.232 73.17ZM156.982 65.7C156.882 65.7 156.872 65.75 156.982 65.86V65.7Z" fill="white"/>
<path d="M135.642 36.36C135.616 36.6338 135.512 36.8943 135.342 37.11C135.162 37.34 134.732 37.46 134.052 37.46H130.662C128.992 37.4618 127.384 38.0909 126.156 39.2225C124.928 40.3542 124.17 41.9058 124.032 43.57L122.472 63.18C122.318 64.842 122.272 66.5121 122.332 68.18C122.359 69.2628 122.551 70.3351 122.902 71.36C123.115 72.0377 123.553 72.6229 124.142 73.02C124.753 73.3573 125.445 73.5199 126.142 73.49C127.118 73.5086 128.079 73.2484 128.912 72.74C129.698 72.2523 130.4 71.6412 130.992 70.93C131.828 69.9413 132.402 68.7584 132.662 67.49C132.666 67.4301 132.666 67.3699 132.662 67.31C132.809 66.639 132.739 65.9386 132.462 65.31C132.287 64.8552 132.019 64.4422 131.674 64.0977C131.33 63.7531 130.917 63.4848 130.462 63.31C129.721 63.0852 129.046 62.681 128.498 62.1333C127.951 61.5856 127.547 60.9112 127.322 60.17C127.082 59.17 127.322 55.69 130.682 55.92C131.651 56.0159 132.564 56.4219 133.285 57.0776C134.005 57.7333 134.495 58.6038 134.682 59.56C134.871 60.3345 134.992 61.1242 135.042 61.92C135.102 62.7456 135.102 63.5744 135.042 64.4C134.925 65.872 134.588 67.3181 134.042 68.69C133.554 69.9594 132.843 71.1312 131.942 72.15C131.073 73.1241 130.005 73.9015 128.812 74.43C127.513 74.9954 126.108 75.2783 124.692 75.26C120.492 75.26 117.688 73.9267 116.282 71.26C114.882 68.62 114.392 64.64 114.822 59.35L116.592 37.87C116.627 37.7153 116.627 37.5547 116.592 37.4H113.442C112.715 37.4 112.382 37.11 112.442 36.53C112.442 36.17 112.892 35.75 113.722 35.28C115.647 34.225 117.371 32.8369 118.812 31.18C120.452 29.2359 121.799 27.063 122.812 24.73C123.018 24.2993 123.291 23.9043 123.622 23.56C123.839 23.2604 124.166 23.059 124.532 23C124.691 23.0013 124.848 23.0379 124.992 23.1071C125.135 23.1762 125.261 23.2763 125.362 23.4C125.498 23.5906 125.593 23.8067 125.643 24.0353C125.693 24.2639 125.696 24.5002 125.652 24.73L125.422 27.52C125.339 28.5078 125.462 29.5021 125.783 30.4399C126.104 31.3777 126.616 32.2386 127.288 32.968C127.959 33.6975 128.774 34.2797 129.682 34.6776C130.59 35.0756 131.57 35.2807 132.562 35.28H134.302C134.507 35.2507 134.717 35.2668 134.916 35.3273C135.114 35.3878 135.297 35.4911 135.452 35.63C135.608 35.8392 135.676 36.1012 135.642 36.36Z" fill="white"/>
<path d="M51.4717 24.75L55.1118 14.67C55.1618 14.54 55.1817 14.46 55.1917 14.43C55.1917 14.2 55.1218 14.08 54.8918 14.08H54.4717C54.2417 14.08 54.1417 14.01 54.1617 13.85C54.1708 13.7758 54.2022 13.7061 54.2517 13.65C54.3329 13.5916 54.4319 13.5633 54.5317 13.57H57.1018C57.1398 13.568 57.1778 13.5752 57.2126 13.5908C57.2474 13.6065 57.2779 13.6302 57.3017 13.66C57.3242 13.6859 57.3412 13.7161 57.3515 13.7488C57.3618 13.7815 57.3653 13.8159 57.3618 13.85C57.3618 14.01 57.2318 14.08 57.0418 14.08H56.7217C56.5553 14.0785 56.3909 14.1162 56.2417 14.19C56.068 14.3063 55.9351 14.4742 55.8618 14.67L51.8618 25.56C51.8118 25.71 51.6917 25.78 51.4917 25.78H48.9717C48.9259 25.7861 48.8794 25.783 48.8348 25.771C48.7901 25.759 48.7483 25.7383 48.7117 25.71C48.6738 25.6669 48.6464 25.6156 48.6318 25.56L47.4017 14.56C47.3972 14.4812 47.3751 14.4043 47.337 14.3351C47.2989 14.2659 47.2459 14.2061 47.1817 14.16C47.0582 14.0966 46.9205 14.0657 46.7817 14.07H46.3618C46.2018 14.07 46.1317 14 46.1517 13.84C46.1581 13.7699 46.1861 13.7035 46.2318 13.65C46.2555 13.6202 46.2861 13.5965 46.3209 13.5808C46.3556 13.5652 46.3936 13.558 46.4317 13.56H51.3717C51.4116 13.5554 51.4519 13.5613 51.4887 13.5771C51.5255 13.5929 51.5576 13.618 51.5817 13.65C51.6157 13.7075 51.633 13.7733 51.6318 13.84C51.6318 14 51.5017 14.07 51.3017 14.07H50.6418C50.5645 14.0768 50.492 14.1105 50.4371 14.1654C50.3823 14.2203 50.3485 14.2927 50.3417 14.37C50.3314 14.4161 50.3314 14.4639 50.3417 14.51L51.4717 24.75Z" fill="#49B8DB"/>
<path d="M59.8117 24.41C59.7569 24.6347 59.7816 24.8715 59.8817 25.08C59.9381 25.1456 60.0091 25.197 60.089 25.23C60.1689 25.263 60.2555 25.2767 60.3417 25.27H61.1217C61.1586 25.3163 61.1827 25.3715 61.1917 25.43C61.2007 25.4796 61.2007 25.5304 61.1917 25.58C61.1865 25.6236 61.1699 25.665 61.1435 25.7001C61.1172 25.7352 61.0821 25.7628 61.0417 25.78H55.7317C55.6985 25.7669 55.6706 25.7431 55.6524 25.7122C55.6343 25.6814 55.627 25.6454 55.6317 25.61C55.6317 25.61 55.6317 25.52 55.6817 25.44C55.7017 25.3715 55.7439 25.3117 55.8017 25.27H56.4717C56.5648 25.279 56.6585 25.2612 56.7418 25.2187C56.8251 25.1762 56.8945 25.1107 56.9417 25.03C57.0276 24.8684 57.0819 24.6919 57.1017 24.51L58.2417 15.63C58.276 15.4645 58.255 15.2923 58.1817 15.14C58.165 15.0872 58.1335 15.0404 58.091 15.0049C58.0484 14.9695 57.9967 14.947 57.9417 14.94C57.8788 14.9332 57.8152 14.9415 57.7561 14.9641C57.697 14.9867 57.6441 15.023 57.6017 15.07C57.5417 15.16 57.4817 15.21 57.4117 15.21C57.3417 15.21 57.2017 15.14 57.2217 14.99C57.2417 14.84 57.2217 14.9 57.2217 14.82C57.2296 14.7473 57.2573 14.6781 57.3017 14.62C57.7755 14.5216 58.2404 14.3844 58.6917 14.21C59.0917 14.04 59.4417 13.89 59.6917 13.74L60.4017 13.36C60.5219 13.2782 60.6583 13.2236 60.8017 13.2C60.8507 13.2004 60.8989 13.2124 60.9423 13.235C60.9858 13.2576 61.0233 13.2901 61.0517 13.33C61.0899 13.3903 61.1158 13.4576 61.1278 13.528C61.1398 13.5984 61.1377 13.6704 61.1217 13.74L59.8117 24.41ZM58.5917 9.87001C58.6447 9.34418 58.8536 8.84618 59.1917 8.44C59.3175 8.27011 59.4799 8.13068 59.6668 8.03201C59.8538 7.93335 60.0605 7.87799 60.2717 7.87001C60.4653 7.8711 60.655 7.92468 60.8205 8.02505C60.9861 8.12543 61.1213 8.26884 61.2117 8.44C61.4557 8.87422 61.5406 9.37994 61.4517 9.87001C61.4023 10.4016 61.1891 10.9047 60.8417 11.31C60.7134 11.4796 60.5491 11.6187 60.3607 11.7172C60.1722 11.8158 59.9642 11.8714 59.7517 11.88C59.5582 11.8852 59.3673 11.8342 59.2022 11.733C59.0371 11.6318 58.9049 11.4849 58.8217 11.31C58.5851 10.8696 58.5041 10.3622 58.5917 9.87001Z" fill="#49B8DB"/>
<path d="M67.3917 13.67C66.7952 13.6601 66.213 13.8541 65.7417 14.22C65.5103 14.3998 65.3176 14.6244 65.175 14.8804C65.0324 15.1365 64.9428 15.4186 64.9117 15.71C64.8919 15.8593 64.8919 16.0106 64.9117 16.16C64.9526 16.3227 65.0027 16.483 65.0617 16.64C65.1117 16.81 65.1617 16.97 65.2017 17.13C65.2315 17.2953 65.2315 17.4647 65.2017 17.63C65.1814 17.7721 65.1306 17.9082 65.053 18.029C64.9753 18.1498 64.8726 18.2525 64.7517 18.33C64.5231 18.4917 64.2517 18.5821 63.9717 18.59C63.8075 18.6122 63.6404 18.5816 63.4948 18.5024C63.3491 18.4233 63.2325 18.2999 63.1617 18.15C63.0388 17.804 63.0044 17.4327 63.0617 17.07C63.1339 16.6149 63.2827 16.1754 63.5017 15.77C63.764 15.2952 64.1017 14.8663 64.5017 14.5C64.93 14.0885 65.4233 13.7506 65.9617 13.5C66.5677 13.2391 67.2221 13.1096 67.8817 13.12C68.4206 13.1165 68.9546 13.222 69.4517 13.43C69.9294 13.6289 70.3491 13.9454 70.6717 14.35C71.0218 14.7993 71.2647 15.3226 71.3817 15.88C71.5251 16.5845 71.5454 17.3085 71.4417 18.02L70.5917 24.65C70.5687 24.7983 70.597 24.9499 70.6717 25.08C70.7109 25.1494 70.7699 25.2055 70.8412 25.2411C70.9124 25.2768 70.9927 25.2903 71.0717 25.28H71.6817C71.8317 25.28 71.8917 25.36 71.8717 25.52C71.8517 25.68 71.7817 25.75 71.6717 25.75H68.1017C67.9217 25.75 67.8417 25.66 67.8617 25.48L67.9517 24.8C67.6367 25.1418 67.2644 25.426 66.8517 25.64C66.3656 25.8852 65.826 26.0054 65.2817 25.99C64.4249 26.0541 63.5726 25.8171 62.8717 25.32C62.597 25.0862 62.3906 24.7825 62.2744 24.4409C62.1582 24.0994 62.1365 23.7328 62.2117 23.38C62.2633 22.897 62.4315 22.4337 62.7017 22.03C62.9808 21.6465 63.3182 21.309 63.7017 21.03C64.0974 20.7189 64.5228 20.4476 64.9717 20.22L66.3717 19.49C66.8417 19.24 67.2917 18.98 67.7317 18.72C68.1599 18.4381 68.5498 18.102 68.8917 17.72L68.9717 17.11C69.1204 16.2525 69.0863 15.3734 68.8717 14.53C68.7593 14.2399 68.5516 13.9967 68.2826 13.8404C68.0136 13.6841 67.6994 13.624 67.3917 13.67ZM66.0817 25.31C66.3329 25.3124 66.5818 25.2612 66.8117 25.16C67.0312 25.0552 67.2309 24.9131 67.4017 24.74C67.5706 24.5719 67.7184 24.3839 67.8417 24.18C67.9615 23.9905 68.0621 23.7895 68.1417 23.58L68.7717 18.68C68.4325 19.114 68.0469 19.5097 67.6217 19.86C67.2117 20.2 66.8217 20.55 66.4417 20.86C66.0628 21.1974 65.7269 21.5803 65.4417 22C65.1563 22.4501 64.9783 22.96 64.9217 23.49C64.8257 23.9432 64.908 24.416 65.1517 24.81C65.251 24.966 65.3886 25.0938 65.5515 25.1814C65.7143 25.2689 65.8969 25.3132 66.0817 25.31ZM68.2917 22.99C68.2917 22.99 68.2917 22.99 68.2917 23.04V22.99Z" fill="#49B8DB"/>
<path d="M74.7917 15.63C74.8163 15.4642 74.7955 15.295 74.7318 15.14C74.6618 15.01 74.5818 14.94 74.4818 14.94C74.4204 14.934 74.3585 14.9427 74.3011 14.9653C74.2438 14.9879 74.1925 15.0238 74.1517 15.07C74.1334 15.1067 74.1066 15.1385 74.0735 15.1628C74.0405 15.1871 74.0022 15.2033 73.9617 15.21C73.8117 15.21 73.7517 15.14 73.7717 14.99C73.7661 14.9335 73.7661 14.8765 73.7717 14.82C73.7875 14.7478 73.8181 14.6797 73.8618 14.62C74.3294 14.5232 74.7878 14.386 75.2318 14.21C75.5728 14.0704 75.9066 13.9135 76.2318 13.74C76.5018 13.59 76.7218 13.47 76.8918 13.36C77.0059 13.2808 77.1353 13.2264 77.2717 13.2C77.3209 13.1996 77.3694 13.2112 77.413 13.2338C77.4566 13.2565 77.4939 13.2895 77.5217 13.33C77.5621 13.3893 77.5893 13.4566 77.6014 13.5274C77.6135 13.5981 77.6102 13.6706 77.5917 13.74L75.7517 28.1C75.3317 31.4333 73.9984 33.0833 71.7517 33.05C71.3304 33.0594 70.9127 32.9704 70.5317 32.79C70.1981 32.6295 69.912 32.3848 69.7018 32.08C69.4823 31.7562 69.3387 31.387 69.2817 31C69.2111 30.5595 69.2111 30.1105 69.2817 29.67C69.3188 29.4102 69.3722 29.153 69.4417 28.9C69.5102 28.6492 69.6005 28.405 69.7117 28.17C69.7983 27.9669 69.9202 27.7806 70.0717 27.62C70.1275 27.551 70.1974 27.4947 70.2768 27.4551C70.3561 27.4154 70.4431 27.3932 70.5317 27.39C70.6101 27.3856 70.6882 27.4017 70.7583 27.4368C70.8285 27.4719 70.8883 27.5247 70.9317 27.59C71.0162 27.7129 71.0551 27.8615 71.0417 28.01C71.0179 28.2156 70.9422 28.4117 70.8217 28.58C70.7064 28.7364 70.5829 28.8866 70.4518 29.03C70.3167 29.1947 70.1931 29.3685 70.0817 29.55C69.9515 29.7739 69.8698 30.0226 69.8417 30.28C69.7546 30.7539 69.8589 31.2429 70.1317 31.64C70.2413 31.8044 70.3901 31.939 70.5647 32.0315C70.7393 32.124 70.9342 32.1716 71.1317 32.17C71.3323 32.1665 71.5312 32.1327 71.7217 32.07C71.9341 31.9868 72.1229 31.8529 72.2717 31.68C72.4654 31.4387 72.6206 31.1688 72.7318 30.88C72.8833 30.4568 72.984 30.017 73.0317 29.57L74.7917 15.63ZM75.2318 9.87001C75.2847 9.34418 75.4936 8.84618 75.8317 8.44C75.957 8.26958 76.1193 8.12977 76.3063 8.03105C76.4934 7.93233 76.7004 7.87727 76.9117 7.87001C77.1053 7.8711 77.295 7.92468 77.4605 8.02505C77.6261 8.12543 77.7613 8.26884 77.8517 8.44C78.0957 8.87422 78.1806 9.37994 78.0917 9.87001C78.0373 10.4003 77.8248 10.902 77.4818 11.31C77.3534 11.4796 77.1891 11.6187 77.0007 11.7172C76.8122 11.8158 76.6043 11.8714 76.3918 11.88C76.1982 11.8852 76.0073 11.8342 75.8422 11.733C75.6771 11.6318 75.5449 11.4849 75.4617 11.31C75.2251 10.8696 75.1441 10.3622 75.2318 9.87001Z" fill="#49B8DB"/>
<path d="M83.7417 13.67C83.1448 13.6577 82.5619 13.8519 82.0917 14.22C81.8603 14.3998 81.6676 14.6244 81.525 14.8805C81.3823 15.1365 81.2928 15.4186 81.2617 15.71C81.2318 15.8585 81.2318 16.0115 81.2617 16.16C81.2617 16.32 81.3517 16.48 81.4017 16.64C81.4609 16.7995 81.5077 16.9633 81.5417 17.13C81.5715 17.2953 81.5715 17.4647 81.5417 17.63C81.5225 17.7713 81.4733 17.9069 81.3975 18.0276C81.3216 18.1483 81.2207 18.2514 81.1017 18.33C80.8731 18.4917 80.6017 18.5821 80.3217 18.59C80.1561 18.6129 79.9874 18.5826 79.8401 18.5035C79.6927 18.4245 79.5742 18.3007 79.5017 18.15C79.3873 17.8021 79.3564 17.4321 79.4117 17.07C79.4794 16.6138 79.6284 16.1735 79.8517 15.77C80.1104 15.2929 80.4486 14.8633 80.8517 14.5C81.2744 14.0863 81.7648 13.7481 82.3017 13.5C82.9082 13.2408 83.5622 13.1114 84.2217 13.12C84.7638 13.1174 85.3009 13.2227 85.8017 13.43C86.2779 13.6315 86.697 13.9475 87.0217 14.35C87.3685 14.8 87.608 15.3233 87.7217 15.88C87.875 16.5833 87.8954 17.3092 87.7817 18.02L86.9317 24.65C86.9132 24.7982 86.9411 24.9484 87.0117 25.08C87.0509 25.1494 87.1099 25.2055 87.1812 25.2411C87.2524 25.2768 87.3327 25.2903 87.4117 25.28H88.0217C88.1717 25.28 88.2317 25.36 88.2117 25.52C88.1917 25.68 88.1317 25.75 88.0117 25.75H84.4717C84.2917 25.75 84.2117 25.66 84.2417 25.48L84.3217 24.8C84.0088 25.1441 83.6361 25.4288 83.2217 25.64C82.736 25.8864 82.1961 26.0067 81.6517 25.99C80.7951 26.0515 79.9436 25.8148 79.2417 25.32C78.967 25.0862 78.7606 24.7825 78.6444 24.441C78.5282 24.0994 78.5065 23.7328 78.5817 23.38C78.6333 22.897 78.8015 22.4337 79.0717 22.03C79.3514 21.647 79.6887 21.3097 80.0717 21.03C80.4655 20.7212 80.8873 20.45 81.3317 20.22L82.7317 19.49C83.2117 19.24 83.6617 18.98 84.0917 18.72C84.5219 18.4408 84.9122 18.1043 85.2517 17.72L85.3317 17.11C85.486 16.2529 85.4519 15.3726 85.2317 14.53C85.1222 14.2357 84.9134 13.9889 84.6415 13.8319C84.3695 13.6749 84.0513 13.6177 83.7417 13.67ZM82.4717 25.31C82.7229 25.3115 82.9715 25.2604 83.2017 25.16C83.4197 25.0526 83.6189 24.9108 83.7917 24.74C83.9577 24.5693 84.1051 24.3816 84.2317 24.18C84.3446 23.9882 84.4416 23.7876 84.5217 23.58L85.1517 18.68C84.7985 19.0994 84.4031 19.4814 83.9717 19.82C83.5617 20.16 83.1617 20.51 82.7817 20.82C82.4023 21.157 82.0664 21.5399 81.7817 21.96C81.4875 22.4058 81.3088 22.9179 81.2617 23.45C81.2115 23.6743 81.2059 23.9064 81.2454 24.1329C81.2848 24.3594 81.3686 24.5759 81.4917 24.77C81.5893 24.9417 81.7325 25.083 81.9055 25.1783C82.0785 25.2736 82.2745 25.3192 82.4717 25.31ZM84.6717 22.99C84.6717 22.99 84.6717 22.99 84.6717 23.04V22.99Z" fill="#49B8DB"/>
<path d="M96.6717 18.35C96.9655 18.3401 97.2572 18.4019 97.5217 18.53C97.7332 18.6424 97.9148 18.8035 98.0517 19C98.1847 19.1951 98.2735 19.417 98.3117 19.65C98.3465 19.8753 98.3465 20.1047 98.3117 20.33C98.2762 20.6367 98.1701 20.9311 98.0017 21.19C97.9399 21.2954 97.8525 21.3837 97.7477 21.4466C97.6428 21.5095 97.5239 21.545 97.4017 21.55C97.3344 21.5529 97.2672 21.541 97.205 21.515C97.1428 21.4891 97.0871 21.4498 97.0417 21.4C96.9954 21.3416 96.9624 21.2737 96.9451 21.2011C96.9278 21.1285 96.9267 21.0531 96.9417 20.98C96.9546 20.8833 96.9815 20.7889 97.0217 20.7L97.1817 20.41C97.1817 20.31 97.2917 20.2 97.3417 20.08C97.3926 19.9482 97.4262 19.8104 97.4417 19.67C97.4843 19.4113 97.4347 19.1459 97.3017 18.92C97.2495 18.8181 97.1688 18.7335 97.0693 18.6767C96.9699 18.6199 96.8561 18.5932 96.7417 18.6C96.5496 18.6092 96.3663 18.6832 96.2217 18.81C96.0041 18.9898 95.824 19.2106 95.6917 19.46C95.5018 19.8172 95.3477 20.1924 95.2317 20.58C95.0753 21.1095 94.9648 21.6515 94.9017 22.2C94.8268 22.73 94.7901 23.2647 94.7917 23.8C94.7931 24.1599 94.8333 24.5187 94.9117 24.87C94.9613 25.0915 95.0642 25.2975 95.2117 25.47C95.2646 25.5292 95.3293 25.5766 95.4017 25.6093C95.474 25.6421 95.5524 25.6593 95.6317 25.66C95.9237 25.6593 96.2077 25.5646 96.4417 25.39C96.6907 25.201 96.9127 24.979 97.1017 24.73C97.2919 24.4845 97.4498 24.2156 97.5717 23.93C97.672 23.7068 97.7426 23.4715 97.7817 23.23C97.7817 23.08 97.8617 23.01 97.9717 23.01C97.9952 23.0092 98.0184 23.0142 98.0394 23.0247C98.0604 23.0352 98.0783 23.0507 98.0917 23.07C98.1027 23.0952 98.1084 23.1225 98.1084 23.15C98.1084 23.1775 98.1027 23.2048 98.0917 23.23C98.039 23.5347 97.9448 23.8308 97.8117 24.11C97.6543 24.4371 97.4561 24.7428 97.2217 25.02C96.9898 25.2979 96.7126 25.5346 96.4017 25.72C96.1 25.9025 95.7543 25.9993 95.4017 26C95.0749 25.9961 94.7534 25.9174 94.4617 25.77C94.1484 25.6134 93.8774 25.3836 93.6717 25.1C93.4334 24.774 93.2634 24.4033 93.1717 24.01C93.0841 23.5138 93.0841 23.0062 93.1717 22.51C93.2441 21.8932 93.4057 21.2902 93.6517 20.72C93.8555 20.2435 94.1322 19.8015 94.4717 19.41C94.7507 19.0844 95.0904 18.8161 95.4717 18.62C95.8449 18.4368 96.2561 18.3443 96.6717 18.35Z" fill="#49B8DB"/>
<path d="M98.8618 22.17C98.9949 21.1688 99.4152 20.2276 100.072 19.46C100.356 19.1321 100.694 18.8549 101.072 18.64C101.434 18.4424 101.839 18.3359 102.252 18.33C102.643 18.3283 103.028 18.4357 103.362 18.64C103.697 18.8469 103.981 19.1273 104.192 19.46C104.422 19.8343 104.582 20.2479 104.662 20.68C104.748 21.173 104.748 21.6771 104.662 22.17C104.597 22.6848 104.455 23.187 104.242 23.66C104.043 24.1048 103.776 24.5163 103.452 24.88C103.17 25.2131 102.831 25.494 102.452 25.71C102.089 25.9061 101.684 26.0092 101.272 26.01C100.884 26.0155 100.503 25.9115 100.172 25.71C99.8338 25.5022 99.5495 25.2179 99.3417 24.88C99.1106 24.5051 98.9481 24.0919 98.8618 23.66C98.7808 23.1666 98.7808 22.6634 98.8618 22.17ZM100.632 22.17C100.552 22.7467 100.508 23.3278 100.502 23.91C100.499 24.2796 100.535 24.6484 100.612 25.01C100.651 25.227 100.752 25.4282 100.902 25.59C101.015 25.6985 101.165 25.7594 101.322 25.76C101.482 25.755 101.636 25.6989 101.762 25.6C101.952 25.4519 102.103 25.2597 102.202 25.04C102.364 24.6901 102.491 24.325 102.582 23.95C102.726 23.364 102.833 22.7695 102.902 22.17C102.981 21.6 103.025 21.0255 103.032 20.45C103.037 20.0776 103.003 19.7056 102.932 19.34C102.894 19.1195 102.793 18.9146 102.642 18.75C102.536 18.6427 102.392 18.5816 102.242 18.58C102.07 18.5839 101.906 18.6517 101.782 18.77C101.593 18.9457 101.44 19.1563 101.332 19.39C101.166 19.7501 101.036 20.1251 100.942 20.51C100.802 21.0526 100.699 21.6038 100.632 22.16V22.17Z" fill="#49B8DB"/>
<path d="M105.292 19.36C105.57 19.2988 105.844 19.2186 106.112 19.12L106.732 18.84L107.142 18.62C107.212 18.5669 107.295 18.5325 107.382 18.52C107.411 18.5208 107.44 18.5284 107.466 18.5423C107.492 18.5562 107.515 18.5759 107.532 18.6C107.55 18.6375 107.559 18.6785 107.559 18.72C107.559 18.7615 107.55 18.8025 107.532 18.84V19.04C107.695 18.9018 107.873 18.7812 108.062 18.68C108.269 18.5621 108.504 18.5033 108.742 18.51C109.014 18.4897 109.288 18.5253 109.546 18.6148C109.804 18.7042 110.04 18.8455 110.242 19.03C110.422 19.2795 110.546 19.5653 110.605 19.8675C110.663 20.1697 110.656 20.4811 110.582 20.78L110.022 25.14C110.008 25.2266 110.026 25.3152 110.072 25.39C110.092 25.4327 110.125 25.4681 110.166 25.4913C110.207 25.5146 110.255 25.5246 110.302 25.52H110.692C110.718 25.541 110.739 25.5688 110.751 25.6004C110.764 25.6321 110.767 25.6665 110.762 25.7C110.756 25.728 110.742 25.7539 110.723 25.775C110.704 25.7961 110.679 25.8117 110.652 25.82H107.772C107.722 25.82 107.692 25.76 107.702 25.72C107.697 25.6868 107.697 25.6531 107.702 25.62C107.717 25.5791 107.745 25.5442 107.782 25.52H108.042C108.097 25.5236 108.152 25.5136 108.203 25.491C108.253 25.4683 108.298 25.4336 108.332 25.39C108.384 25.3269 108.419 25.2509 108.432 25.17L109.102 19.98C109.164 19.7098 109.118 19.4258 108.972 19.19C108.904 19.1027 108.815 19.0334 108.714 18.9881C108.613 18.9427 108.502 18.9228 108.392 18.93C108.211 18.937 108.036 18.9999 107.892 19.11C107.726 19.228 107.575 19.3656 107.442 19.52L106.732 25.01C106.699 25.145 106.717 25.2872 106.782 25.41C106.813 25.4482 106.853 25.4783 106.898 25.4975C106.943 25.5167 106.993 25.5244 107.042 25.52H107.512C107.549 25.5721 107.567 25.636 107.562 25.7C107.556 25.7253 107.545 25.7491 107.53 25.7698C107.514 25.7905 107.494 25.8076 107.472 25.82H104.332C104.321 25.8177 104.311 25.8132 104.302 25.8068C104.293 25.8005 104.286 25.7923 104.28 25.783C104.274 25.7736 104.271 25.7632 104.269 25.7523C104.268 25.7415 104.269 25.7305 104.272 25.72C104.27 25.6867 104.27 25.6533 104.272 25.62C104.284 25.5802 104.309 25.5452 104.342 25.52H104.722C104.777 25.5259 104.833 25.5158 104.882 25.491C104.932 25.4662 104.973 25.4277 105.002 25.38C105.053 25.2833 105.087 25.1784 105.102 25.07L105.752 19.95C105.784 19.8594 105.784 19.7606 105.752 19.67C105.712 19.59 105.662 19.55 105.602 19.55C105.565 19.5476 105.527 19.5535 105.493 19.5674C105.458 19.5812 105.427 19.6026 105.402 19.63C105.392 19.6516 105.376 19.6703 105.357 19.6842C105.338 19.6982 105.315 19.7071 105.292 19.71C105.212 19.71 105.172 19.71 105.182 19.58C105.18 19.5467 105.18 19.5133 105.182 19.48C105.208 19.4314 105.246 19.3902 105.292 19.36Z" fill="#49B8DB"/>
<path d="M173.922 23.89C173.832 23.26 171.052 22.19 168.862 21.5C172.582 19.75 174.862 17.5 174.772 15.2C167.692 19.2 159.132 21.26 152.322 22.37C148.922 22.93 145.962 23.24 143.852 23.37C142.792 23.46 141.942 23.51 141.362 23.54H140.452C139.012 23.6 137.592 23.64 136.172 23.67C134.752 23.7 133.342 23.72 131.832 23.72H130.372C130.302 23.72 130.282 23.72 130.262 23.72H130.352H130.502H130.782H131.052H131.452H132.172H133.552H152.412L173.922 23.64V23.89Z" fill="white"/>
</svg>
