<svg width="169" height="61" viewBox="0 0 169 61" fill="none" xmlns="http://www.w3.org/2000/svg">
<path d="M40.91 8.22421H39.91L41.62 0.174194H44C45.23 0.174194 45.84 0.694213 45.84 1.72421C45.8388 1.97579 45.8154 2.22676 45.77 2.47421C45.7041 2.83904 45.5623 3.18597 45.3539 3.49258C45.1454 3.7992 44.875 4.05866 44.56 4.25421C44.1065 4.53408 43.5829 4.67969 43.05 4.67419H41.7L40.91 8.22421ZM42.42 1.06421L41.86 3.78421H42.98C43.388 3.82141 43.7946 3.69969 44.115 3.44446C44.4355 3.18922 44.645 2.82018 44.7 2.41422C44.7134 2.27788 44.7134 2.14055 44.7 2.00421C44.716 1.85167 44.6888 1.69772 44.6216 1.55984C44.5544 1.42197 44.45 1.30568 44.32 1.22421C44.1682 1.11666 43.986 1.06058 43.8 1.06421H42.42Z" fill="white"/>
<path d="M45.2 8.22421L49.46 0.174194H50.76L51.68 8.22421H50.53L50.36 6.3042H47.25L46.25 8.22421H45.2ZM50.27 5.41422L49.88 1.12421L47.72 5.41422H50.27Z" fill="white"/>
<path d="M55.75 4.5242H54.55L53.76 8.22421H52.76L54.47 0.174194H57.2C58.25 0.174194 58.78 0.654197 58.78 1.6142C58.7746 1.80598 58.7512 1.99683 58.71 2.1842C58.6144 2.64464 58.3888 3.06803 58.06 3.40421C57.7325 3.73206 57.3083 3.94594 56.85 4.01422C57.1171 4.03457 57.3717 4.13569 57.58 4.3042C57.6744 4.4092 57.7455 4.53301 57.7885 4.66745C57.8316 4.80189 57.8458 4.9439 57.83 5.0842C57.8192 5.41987 57.7824 5.7542 57.72 6.0842C57.5686 6.77667 57.5114 7.48643 57.55 8.19421H56.48C56.4362 8.05179 56.416 7.90317 56.42 7.75421C56.4346 7.41832 56.4747 7.08402 56.54 6.75421C56.65 6.05421 56.72 5.65421 56.74 5.53421C56.76 5.41421 56.74 5.3942 56.74 5.3342C56.76 4.7942 56.42 4.5242 55.75 4.5242ZM55.27 1.06421L54.74 3.62421H56.28C56.4775 3.61962 56.6711 3.56829 56.8449 3.47443C57.0188 3.38056 57.1678 3.24682 57.28 3.0842C57.5321 2.75818 57.6661 2.35628 57.66 1.94421C57.678 1.82626 57.6684 1.70573 57.6319 1.59213C57.5954 1.47854 57.533 1.37498 57.4496 1.28964C57.3662 1.20431 57.2641 1.13953 57.1513 1.1004C57.0386 1.06128 56.9184 1.04889 56.8 1.06421H55.27Z" fill="white"/>
<path d="M59.91 0.174194H65.2L65.01 1.06421H62.89L61.38 8.22421H60.38L61.9 1.06421H59.78L59.91 0.174194Z" fill="white"/>
<path d="M67.39 0.174194L65.68 8.22421H64.68L66.38 0.174194H67.39Z" fill="white"/>
<path d="M73.46 2.39418H72.4C72.47 2.14992 72.5103 1.8981 72.52 1.64418C72.5274 1.4962 72.489 1.34955 72.41 1.2242C72.3169 1.09812 72.1918 0.999203 72.0476 0.937671C71.9034 0.876139 71.7455 0.854219 71.59 0.874194C71.2372 0.862465 70.889 0.956481 70.59 1.14418C70.443 1.24065 70.3143 1.36257 70.21 1.5042C70.15 1.6242 70.08 1.73421 70.01 1.85421C69.8414 2.28185 69.7109 2.72355 69.62 3.17418L69.2 5.32421C69.1247 5.68301 69.0812 6.04775 69.07 6.4142C69.052 6.5832 69.0713 6.75408 69.1266 6.91478C69.1818 7.07549 69.2718 7.22209 69.39 7.3442C69.6261 7.48109 69.8978 7.5438 70.17 7.52419C70.4593 7.52591 70.742 7.43863 70.98 7.27419C71.4252 6.91908 71.7184 6.40776 71.8 5.8442H72.86C72.53 7.5442 71.6 8.3842 70.05 8.3842C69.597 8.41358 69.1437 8.33114 68.73 8.14418C68.4769 7.96536 68.2771 7.7211 68.152 7.43752C68.027 7.15394 67.9813 6.84171 68.02 6.5342C68.0297 6.08611 68.0866 5.64029 68.19 5.20418L68.67 2.92418C68.7964 2.03964 69.2154 1.22292 69.86 0.604205C70.4372 0.178945 71.144 -0.0330965 71.86 0.00419924C73.03 0.00419924 73.61 0.474183 73.61 1.39418C73.607 1.73289 73.5566 2.06951 73.46 2.39418Z" fill="white"/>
<path d="M76.68 0.174194L74.98 8.22421H73.98L75.69 0.174194H76.68Z" fill="white"/>
<path d="M78.08 8.22421H77.08L78.79 0.174194H81.17C82.4 0.174194 83.01 0.694213 83.01 1.72421C83.0051 1.97605 82.9783 2.22699 82.93 2.47421C82.8676 2.83903 82.7284 3.1864 82.5215 3.49329C82.3146 3.80017 82.0448 4.05956 81.73 4.25421C81.2729 4.53439 80.7461 4.67995 80.21 4.67419H78.86L78.08 8.22421ZM79.59 1.06421L79.02 3.78421H80.2C80.608 3.82141 81.0146 3.69969 81.335 3.44446C81.6555 3.18922 81.865 2.82018 81.92 2.41422C81.9334 2.27788 81.9334 2.14055 81.92 2.00421C81.9337 1.85193 81.9055 1.69879 81.8385 1.56134C81.7715 1.42389 81.6683 1.30733 81.54 1.22421C81.3882 1.11666 81.206 1.06058 81.02 1.06421H79.59Z" fill="white"/>
<path d="M82.38 8.22421L86.64 0.174194H87.94L88.85 8.22421H87.71L87.54 6.3042H84.43L83.43 8.22421H82.38ZM87.45 5.41422L87.06 1.12421L84.9 5.41422H87.45Z" fill="white"/>
<path d="M93.56 8.22421H92.56L94.27 0.174194H96.65C97.88 0.174194 98.49 0.694213 98.49 1.72421C98.4851 1.97605 98.4583 2.22699 98.41 2.47421C98.3476 2.83903 98.2084 3.1864 98.0015 3.49329C97.7946 3.80017 97.5248 4.05956 97.21 4.25421C96.7534 4.5354 96.2262 4.68104 95.69 4.67419H94.34L93.56 8.22421ZM95.07 1.06421L94.5 3.78421H95.63C96.038 3.82141 96.4446 3.69969 96.765 3.44446C97.0855 3.18922 97.295 2.82018 97.35 2.41422C97.3634 2.27788 97.3634 2.14055 97.35 2.00421C97.3637 1.85193 97.3355 1.69879 97.2685 1.56134C97.2016 1.42389 97.0983 1.30733 96.97 1.22421C96.8182 1.11666 96.636 1.06058 96.45 1.06421H95.07Z" fill="white"/>
<path d="M101.06 8.38421C99.7 8.38421 99.06 7.76419 99.06 6.52419C99.0674 6.10351 99.1177 5.68468 99.21 5.27419L99.77 2.63421C99.8908 1.90706 100.241 1.2377 100.77 0.724204C101.342 0.234118 102.077 -0.0229018 102.83 0.0042032C104.2 0.0042032 104.89 0.61419 104.89 1.83419C104.889 2.1039 104.855 2.37252 104.79 2.63421L104.23 5.27419C104.107 6.16299 103.717 6.99326 103.11 7.6542C102.55 8.1591 101.813 8.4216 101.06 8.38421ZM101.24 7.52419C101.46 7.53786 101.68 7.50581 101.886 7.43008C102.093 7.35434 102.281 7.23656 102.44 7.08419C102.839 6.5727 103.097 5.9661 103.19 5.32421L103.77 2.60421C103.808 2.40976 103.828 2.21229 103.83 2.01421C103.857 1.85439 103.846 1.69028 103.795 1.53606C103.745 1.38185 103.658 1.24213 103.542 1.12896C103.426 1.01578 103.284 0.932562 103.129 0.886436C102.973 0.84031 102.809 0.832666 102.65 0.864189C101.65 0.864189 101.05 1.44421 100.8 2.60421L100.2 5.32421C100.12 5.67544 100.076 6.03399 100.07 6.39419C100.054 6.55687 100.072 6.72117 100.124 6.87627C100.176 7.03138 100.259 7.17381 100.37 7.29421C100.611 7.46678 100.905 7.54827 101.2 7.52419H101.24Z" fill="white"/>
<path d="M108.4 4.5242H107.2L106.41 8.22421H105.41L107.12 0.174194H109.89C110.89 0.174194 111.46 0.654197 111.46 1.6142C111.458 1.80568 111.438 1.99655 111.4 2.1842C111.304 2.64464 111.079 3.06803 110.75 3.40421C110.42 3.73397 109.992 3.948 109.53 4.01422C109.801 4.03257 110.059 4.1338 110.27 4.3042C110.364 4.4092 110.435 4.53301 110.479 4.66745C110.522 4.80189 110.536 4.9439 110.52 5.0842C110.51 5.42045 110.47 5.75513 110.4 6.0842C110.256 6.77768 110.202 7.48692 110.24 8.19421H109.17C109.126 8.05179 109.106 7.90317 109.11 7.75421C109.125 7.41885 109.162 7.08481 109.22 6.75421C109.34 6.05421 109.41 5.65421 109.42 5.53421C109.425 5.46763 109.425 5.40078 109.42 5.3342C109.4 4.7942 109.07 4.5242 108.4 4.5242ZM107.92 1.06421L107.39 3.62421H108.93C109.127 3.61962 109.321 3.56829 109.495 3.47443C109.669 3.38056 109.818 3.24682 109.93 3.0842C110.178 2.756 110.311 2.35555 110.31 1.94421C110.328 1.82626 110.318 1.70573 110.282 1.59213C110.245 1.47854 110.183 1.37498 110.1 1.28964C110.016 1.20431 109.914 1.13953 109.801 1.1004C109.689 1.06128 109.568 1.04889 109.45 1.06421H107.92Z" fill="white"/>
<path d="M114.66 5.2742L115.75 0.174194H116.75L115.66 5.32422C115.58 5.66864 115.536 6.02059 115.53 6.37421C115.512 6.53931 115.531 6.70631 115.584 6.86349C115.638 7.02068 115.725 7.16426 115.84 7.28421C116.088 7.4665 116.394 7.55186 116.7 7.5242C116.921 7.53928 117.143 7.50793 117.352 7.43216C117.56 7.35638 117.75 7.23785 117.91 7.0842C118.317 6.57649 118.579 5.96852 118.67 5.32422L119.76 0.174194H120.76L119.67 5.2742C119.556 6.14675 119.183 6.96517 118.6 7.62421C118.322 7.87544 117.996 8.06925 117.643 8.19452C117.289 8.31979 116.914 8.37406 116.54 8.35422C115.19 8.35422 114.54 7.7342 114.54 6.4942C114.54 6.08457 114.58 5.67589 114.66 5.2742Z" fill="white"/>
<path d="M127.25 0.174194H128.2L126.5 8.22421H125.09L123.4 1.22421L121.92 8.22421H121.01L122.71 0.174194H124.16L125.83 7.06421L127.25 0.174194Z" fill="white"/>
<path d="M4.50999 29.2042L4.09999 17.1142H6.71999V25.9042L10.72 17.1142H13.2L7.45 29.2042H4.50999Z" fill="white"/>
<path d="M14.34 29.2042H11.81L14.34 17.1142H16.9L14.34 29.2042Z" fill="white"/>
<path d="M18.04 29.2042H15.54L21.45 17.1142H24.78L25.5 29.2042H22.84L22.74 26.5242H19.29L18.04 29.2042ZM22.61 24.6642L22.49 19.4442L20.2 24.6242L22.61 24.6642Z" fill="white"/>
<path d="M33.1 17.1142H35.63L33.63 26.3842C33.5396 26.8546 33.3537 27.3015 33.0836 27.6971C32.8136 28.0927 32.4651 28.4287 32.06 28.6842C31.2897 29.1732 30.3922 29.4236 29.48 29.4042C28.6269 29.4733 27.7722 29.2926 27.02 28.8842C26.7961 28.7057 26.6202 28.4741 26.5084 28.2104C26.3967 27.9467 26.3525 27.6593 26.38 27.3742C26.4212 26.6361 26.5283 25.9032 26.7 25.1842H29.28C29.1524 25.6912 29.0556 26.2055 28.99 26.7242C28.9734 26.8424 28.9844 26.9627 29.0222 27.0759C29.06 27.1891 29.1236 27.2919 29.208 27.3762C29.2923 27.4606 29.3952 27.5242 29.5083 27.562C29.6215 27.5998 29.7419 27.6109 29.86 27.5942C30.1455 27.5912 30.4184 27.4763 30.62 27.2742C30.838 27.0841 30.9946 26.8335 31.07 26.5542L33.1 17.1142Z" fill="white"/>
<path d="M41.79 29.2042H35.06L37.62 17.1142H44.2L43.82 18.9742H39.75L39.12 21.9742H42.86L42.46 23.8342H38.71L37.98 27.3642H42.2L41.79 29.2042Z" fill="white"/>
<path d="M53.87 29.2042H47.14L49.7 17.1142H56.3L55.91 18.9742H51.85L51.21 21.9742H54.96L54.56 23.8342H50.81L50.07 27.3642H54.27L53.87 29.2042Z" fill="white"/>
<path d="M57.87 29.2042H55.53L58.09 17.1142H61.5L62.94 25.4842L64.71 17.1142H67.07L64.5 29.2042H61.2L59.77 20.3642L57.87 29.2042Z" fill="white"/>
<path d="M74.54 21.9542H77.41L78.41 17.1142H80.98L78.41 29.2042H75.9L77.03 23.8142H74.14L73 29.2042H70.47L73 17.1142H75.56L74.54 21.9542Z" fill="white"/>
<path d="M87.34 29.2042H80.62L83.2 17.1142H89.79L89.41 18.9742H85.34L84.7 21.9742H88.45L88.05 23.8342H84.3L83.57 27.3642H87.77L87.34 29.2042Z" fill="white"/>
<path d="M95.31 29.2042H89L91.56 17.1142H94.09L91.96 27.1942H95.75L95.31 29.2042Z" fill="white"/>
<path d="M98.94 29.2042H96.42L98.94 17.1142H101.5L98.94 29.2042Z" fill="white"/>
<path d="M105.07 29.4042C104.113 29.4914 103.16 29.1966 102.42 28.5842C101.928 27.9996 101.684 27.2461 101.74 26.4842C101.805 25.3613 101.973 24.2468 102.24 23.1542C102.479 21.6447 102.965 20.185 103.68 18.8342C104.125 18.1966 104.727 17.6847 105.428 17.3483C106.128 17.0119 106.904 16.8624 107.68 16.9142C109.6 16.9142 110.56 17.7242 110.56 19.3542C110.552 19.8879 110.478 20.4186 110.34 20.9342H107.86C107.962 20.5114 108.019 20.079 108.03 19.6442C108.03 19.0242 107.79 18.7242 107.3 18.7242C106.971 18.7234 106.649 18.8173 106.373 18.9946C106.096 19.172 105.876 19.4253 105.74 19.7242C105.282 20.8101 104.946 21.9438 104.74 23.1042C104.493 24.105 104.336 25.1256 104.27 26.1542C104.27 27.0842 104.65 27.5442 105.39 27.5442C105.653 27.5367 105.908 27.4495 106.12 27.2942C106.333 27.1388 106.493 26.9226 106.58 26.6742C106.799 26.1622 106.967 25.6296 107.08 25.0842H109.58C109.398 26.3492 108.816 27.5228 107.92 28.4342C107.119 29.092 106.106 29.4367 105.07 29.4042Z" fill="white"/>
<path d="M114.37 29.4042C113.416 29.4898 112.467 29.195 111.73 28.5842C111.231 28.0033 110.983 27.248 111.04 26.4842C111.105 25.3606 111.276 24.2457 111.55 23.1542C111.779 21.6424 112.266 20.1811 112.99 18.8342C113.433 18.1951 114.035 17.6822 114.736 17.3456C115.437 17.009 116.214 16.8604 116.99 16.9142C117.95 16.8255 118.906 17.1202 119.65 17.7342C120.143 18.31 120.388 19.0581 120.33 19.8142C120.268 20.9408 120.101 22.059 119.83 23.1542C119.59 24.6571 119.104 26.1101 118.39 27.4542C117.948 28.1011 117.344 28.6214 116.639 28.9634C115.934 29.3054 115.152 29.4573 114.37 29.4042ZM114.76 27.5942C115.097 27.5919 115.426 27.4901 115.705 27.3015C115.985 27.1129 116.202 26.846 116.33 26.5342C116.79 25.4489 117.125 24.315 117.33 23.1542C117.565 22.1689 117.716 21.1652 117.78 20.1542C117.78 19.2242 117.41 18.7642 116.66 18.7642C116.331 18.7634 116.009 18.8572 115.733 19.0346C115.456 19.2119 115.236 19.4653 115.1 19.7642C114.638 20.8488 114.303 21.9829 114.1 23.1442C113.848 24.1439 113.691 25.1651 113.63 26.1942C113.64 27.1342 114.01 27.6242 114.76 27.6242V27.5942ZM117.84 13.4842H120.1L116.92 15.8742H115.83L117.84 13.4842Z" fill="white"/>
<path d="M120.62 29.2042L123.2 17.1142H127.77C129.51 17.1142 130.37 17.9042 130.37 19.4742C130.366 19.8974 130.323 20.3192 130.24 20.7342C129.733 23.0942 128.357 24.2742 126.11 24.2742H124.2L123.2 29.2042H120.62ZM125.32 18.9742L124.58 22.4242H125.99C126.182 22.4146 126.37 22.3652 126.542 22.2792C126.715 22.1931 126.867 22.0722 126.99 21.9242C127.292 21.6115 127.5 21.2199 127.59 20.7942C127.645 20.5547 127.675 20.31 127.68 20.0642C127.694 19.9157 127.675 19.7659 127.624 19.6258C127.573 19.4856 127.492 19.3586 127.385 19.2541C127.279 19.1496 127.15 19.0702 127.009 19.0218C126.868 18.9734 126.718 18.9571 126.57 18.9742H125.32Z" fill="white"/>
<path d="M131.51 17.1142H139.66L139.25 19.1142H136.43L134.29 29.1942H131.76L133.91 19.1142H131.1L131.51 17.1142Z" fill="white"/>
<path d="M145 29.2042H138.28L140.84 17.1142H147.43L147.04 18.9742H142.98L142.34 21.9742H146.09L145.69 23.8342H141.94L141.2 27.3642H145.41L145 29.2042Z" fill="white"/>
<path d="M150.2 24.1942L149.13 29.1942H146.6L149.13 17.1042H153.82C155.35 17.1042 156.11 17.8342 156.11 19.2842C156.109 19.6211 156.069 19.9567 155.99 20.2842C155.916 21.0314 155.594 21.7324 155.076 22.2759C154.558 22.8194 153.873 23.1743 153.13 23.2842C154.32 23.4342 154.91 23.9842 154.91 24.9442C154.907 25.1868 154.877 25.4284 154.82 25.6642C154.564 26.7414 154.404 27.839 154.34 28.9442C154.333 29.0341 154.333 29.1244 154.34 29.2142H151.86C151.809 29.0286 151.786 28.8366 151.79 28.6442C151.82 28.0788 151.914 27.5186 152.07 26.9742C152.217 26.4352 152.308 25.8821 152.34 25.3242C152.34 24.5742 151.85 24.2042 150.86 24.2042L150.2 24.1942ZM151.31 18.9742L150.59 22.3342H151.71C151.936 22.3344 152.158 22.2799 152.359 22.1754C152.559 22.0709 152.731 21.9196 152.86 21.7342C153.123 21.3907 153.301 20.9898 153.38 20.5642C153.426 20.3675 153.449 20.1662 153.45 19.9642C153.468 19.8286 153.455 19.6907 153.411 19.5611C153.367 19.4315 153.294 19.3138 153.197 19.217C153.1 19.1203 152.983 19.0472 152.853 19.0033C152.724 18.9595 152.586 18.9461 152.45 18.9642L151.31 18.9742Z" fill="white"/>
<path d="M159.95 29.4042C159.478 29.4482 159.001 29.3984 158.548 29.2577C158.095 29.117 157.674 28.8881 157.31 28.5842C156.811 28.0033 156.563 27.248 156.62 26.4842C156.685 25.3613 156.853 24.2467 157.12 23.1542C157.359 21.6447 157.845 20.185 158.56 18.8342C159.009 18.1889 159.619 17.6723 160.33 17.3355C161.04 16.9987 161.826 16.8535 162.61 16.9142C163.086 16.8686 163.565 16.9176 164.022 17.0583C164.478 17.199 164.903 17.4287 165.27 17.7342C165.518 18.0173 165.707 18.3472 165.825 18.7044C165.944 19.0617 165.99 19.439 165.96 19.8142C165.893 20.9402 165.726 22.058 165.46 23.1542C165.22 24.6571 164.734 26.1101 164.02 27.4542C163.573 28.1081 162.961 28.6326 162.246 28.9749C161.532 29.3172 160.74 29.4653 159.95 29.4042ZM160.33 27.5942C160.669 27.5939 161 27.4929 161.281 27.3042C161.562 27.1155 161.781 26.8475 161.91 26.5342C162.37 25.4488 162.705 24.315 162.91 23.1542C163.145 22.1689 163.296 21.1652 163.36 20.1542C163.36 19.2242 162.98 18.7642 162.24 18.7642C161.911 18.7634 161.589 18.8572 161.313 19.0346C161.036 19.2119 160.816 19.4653 160.68 19.7642C160.222 20.8501 159.886 21.9838 159.68 23.1442C159.433 24.1449 159.276 25.1656 159.21 26.1942C159.2 27.1342 159.59 27.6242 160.33 27.6242V27.5942Z" fill="white"/>
<path d="M2.34999 41.2242L4.68001 37.5342H5.68001L2.59999 42.2542L1.98 45.1542H0.979996L1.59999 42.2542L0.550003 37.5342H1.64L2.34999 41.2242Z" fill="white"/>
<path d="M8.43001 45.1542H7.43001L9.05 37.5342H11.3C12.46 37.5342 13.05 38.0242 13.05 39.0042C13.0453 39.2428 13.0185 39.4805 12.97 39.7142C12.9118 40.061 12.78 40.3913 12.5833 40.6829C12.3866 40.9744 12.1298 41.2204 11.83 41.4042C11.3994 41.6671 10.9045 41.8056 10.4 41.8042H9.2L8.43001 45.1542ZM9.87001 38.3842L9.33 40.9542H10.4C10.7861 40.991 11.1714 40.8758 11.4739 40.633C11.7764 40.3903 11.9723 40.0391 12.02 39.6542C12.0338 39.5246 12.0338 39.3939 12.02 39.2642C12.033 39.1212 12.0063 38.9773 11.9428 38.8485C11.8792 38.7197 11.7814 38.611 11.66 38.5342C11.5163 38.4344 11.345 38.382 11.17 38.3842H9.87001Z" fill="white"/>
<path d="M16.04 41.6242H14.9L14.15 45.1242H13.15L14.77 37.5042H17.39C18.39 37.5042 18.88 37.9642 18.88 38.8642C18.8788 39.0458 18.8587 39.2268 18.82 39.4042C18.7425 39.8646 18.5262 40.2902 18.2 40.6242C17.8911 40.9391 17.4868 41.143 17.05 41.2042C17.3026 41.2198 17.5439 41.3143 17.74 41.4742C17.8257 41.5761 17.8901 41.6939 17.9296 41.821C17.9691 41.9481 17.9828 42.0818 17.97 42.2142C17.9663 42.5498 17.9329 42.8845 17.87 43.2142C17.7251 43.8704 17.6713 44.5434 17.71 45.2142H16.71C16.6654 45.0823 16.645 44.9434 16.65 44.8042C16.6627 44.4687 16.6994 44.1345 16.76 43.8042C16.87 43.1542 16.94 42.8042 16.95 42.6542C16.9547 42.591 16.9547 42.5274 16.95 42.4642C16.99 41.9142 16.67 41.6242 16.04 41.6242ZM15.59 38.3542L15.08 40.7842H16.54C16.7364 40.7852 16.93 40.7384 17.1042 40.6478C17.2785 40.5572 17.428 40.4255 17.54 40.2642C17.775 39.9533 17.9015 39.5739 17.9 39.1842C17.9165 39.0723 17.9068 38.958 17.8716 38.8505C17.8364 38.743 17.7767 38.6451 17.6971 38.5646C17.6176 38.4841 17.5205 38.4232 17.4134 38.3867C17.3063 38.3501 17.1921 38.3391 17.08 38.3542H15.59Z" fill="white"/>
<path d="M23.06 45.1542H19.06L20.67 37.5342H24.6L24.42 38.3842H21.42L20.9 40.8342H23.64L23.46 41.6742H20.72L20.16 44.3142H23.16L23.06 45.1542Z" fill="white"/>
<path d="M26.7 38.3842L25.26 45.1542H24.36L25.97 37.5342H27.54L28.11 43.9342L31.4 37.5342H33.01L31.4 45.1542H30.4L31.83 38.3842L28.26 45.1542H27.34L26.69 38.3842H26.7Z" fill="white"/>
<path d="M35.85 37.5342L34.2 45.1542H33.2L34.82 37.5342H35.85Z" fill="white"/>
<path d="M38.4 45.3142C37.12 45.3142 36.48 44.7242 36.48 43.5542C36.4873 43.1566 36.5376 42.761 36.63 42.3742L37.16 39.8742C37.2788 39.1722 37.6312 38.5309 38.16 38.0542C38.7031 37.5945 39.399 37.3554 40.11 37.3842C41.41 37.3842 42.06 37.9542 42.06 39.1142C42.0569 39.37 42.0267 39.6247 41.97 39.8742L41.44 42.3742C41.3201 43.2135 40.9508 43.9974 40.38 44.6242C39.8376 45.1076 39.1254 45.3558 38.4 45.3142ZM38.57 44.5042C38.7788 44.517 38.9879 44.4862 39.1841 44.4139C39.3804 44.3416 39.5594 44.2293 39.71 44.0842C40.0858 43.5975 40.3303 43.0225 40.42 42.4142L40.97 39.8342C41.0082 39.6499 41.0283 39.4624 41.03 39.2742C41.03 38.5542 40.66 38.1942 39.91 38.1942C38.98 38.1942 38.39 38.7442 38.16 39.8342L37.61 42.4142C37.5359 42.7428 37.4924 43.0776 37.48 43.4142C37.465 43.5699 37.4831 43.727 37.5331 43.8752C37.5831 44.0234 37.6638 44.1594 37.77 44.2742C38.0019 44.4415 38.2847 44.5228 38.57 44.5042Z" fill="white"/>
<path d="M42.78 42.8842H43.78L43.73 43.1142C43.716 43.2505 43.716 43.3879 43.73 43.5242C43.73 44.1542 44.07 44.5242 44.73 44.5242C45.1096 44.5701 45.4922 44.4663 45.7965 44.2348C46.1008 44.0033 46.303 43.6623 46.36 43.2842C46.3644 43.2076 46.3644 43.1308 46.36 43.0542C46.335 42.8427 46.2579 42.6407 46.1358 42.4662C46.0136 42.2917 45.8502 42.1501 45.66 42.0542L44.37 41.2342C44.1625 41.0878 43.992 40.8949 43.8722 40.671C43.7524 40.447 43.6866 40.1981 43.68 39.9442C43.6657 39.8013 43.6657 39.6572 43.68 39.5142C43.806 38.8926 44.1634 38.3421 44.68 37.9742C45.1786 37.6201 45.7787 37.4375 46.39 37.4542C47.56 37.4542 48.14 37.9242 48.14 38.8642C48.1351 39.1382 48.0948 39.4105 48.02 39.6742H47.02C47.0676 39.4945 47.0945 39.31 47.1 39.1242C47.1 38.5742 46.78 38.2942 46.15 38.2942C45.841 38.2847 45.5368 38.3721 45.28 38.5442C44.9943 38.7552 44.7981 39.0656 44.73 39.4142C44.7251 39.4908 44.7251 39.5676 44.73 39.6442C44.7523 39.8553 44.8271 40.0574 44.9477 40.2321C45.0682 40.4068 45.2306 40.5485 45.42 40.6442L46.71 41.4642C46.9209 41.6189 47.093 41.8205 47.2127 42.053C47.3324 42.2856 47.3965 42.5427 47.4 42.8042C47.414 42.9572 47.414 43.1112 47.4 43.2642C47.2916 43.9118 46.9384 44.493 46.4135 44.8876C45.8887 45.2821 45.2323 45.4599 44.58 45.3842C43.35 45.3842 42.73 44.8942 42.73 43.8942C42.7066 43.5567 42.7234 43.2177 42.78 42.8842Z" fill="white"/>
<path d="M50.75 45.1542L52.36 37.5342H54.7C55.7 37.5342 56.31 37.9242 56.51 38.6942C56.5455 38.8686 56.5622 39.0463 56.56 39.2242C56.5525 39.8568 56.4788 40.487 56.34 41.1042C56.194 42.1967 55.8118 43.2443 55.22 44.1742C54.8708 44.5345 54.445 44.8115 53.9741 44.9846C53.5032 45.1577 52.9994 45.2225 52.5 45.1742L50.75 45.1542ZM53.15 38.3842L51.9 44.3142H52.82C53.3777 44.3584 53.9305 44.1826 54.36 43.8242C54.7911 43.3166 55.0655 42.6948 55.15 42.0342L55.48 40.4942C55.5451 40.1815 55.5819 39.8635 55.59 39.5442C55.6183 39.3856 55.6078 39.2226 55.5595 39.0689C55.5112 38.9152 55.4266 38.7755 55.3127 38.6616C55.1987 38.5477 55.059 38.463 54.9053 38.4147C54.7517 38.3664 54.5886 38.3559 54.43 38.3842H53.15Z" fill="white"/>
<path d="M59.89 37.5342L58.27 45.1542H57.27L58.88 37.5342H59.89Z" fill="white"/>
<path d="M59.41 45.1542L63.41 37.5342H64.65L65.51 45.1542H64.43L64.27 43.3442H61.27L60.27 45.1542H59.41ZM64.21 42.4942L63.84 38.4342L61.84 42.4942H64.21Z" fill="white"/>
<path d="M69.39 41.6242H68.25L67.5 45.1242H66.5L68.12 37.5042H70.75C71.75 37.5042 72.23 37.9642 72.23 38.8642C72.2288 39.0458 72.2087 39.2268 72.17 39.4042C72.084 39.842 71.872 40.2452 71.56 40.5642C71.2511 40.8791 70.8468 41.083 70.41 41.1442C70.6656 41.1598 70.9102 41.2541 71.11 41.4142C71.1957 41.5161 71.2601 41.6339 71.2996 41.761C71.3391 41.8881 71.3529 42.0218 71.34 42.1542C71.332 42.4901 71.2952 42.8246 71.23 43.1542C71.0902 43.8111 71.0365 44.4834 71.07 45.1542H70.07C70.0341 45.0206 70.0173 44.8825 70.02 44.7442C70.0282 44.4088 70.0616 44.0745 70.12 43.7442C70.24 43.0942 70.3 42.7442 70.31 42.5942C70.3147 42.531 70.3147 42.4675 70.31 42.4042C70.34 41.9142 70.03 41.6242 69.39 41.6242ZM68.94 38.3542L68.43 40.7842H69.89C70.0864 40.7852 70.28 40.7384 70.4543 40.6478C70.6285 40.5572 70.778 40.4255 70.89 40.2642C71.125 39.9533 71.2515 39.5739 71.25 39.1842C71.2662 39.0732 71.2566 38.96 71.2219 38.8533C71.1872 38.7466 71.1284 38.6493 71.0501 38.5691C70.9717 38.4888 70.8759 38.4276 70.7701 38.3904C70.6643 38.3531 70.5514 38.3408 70.44 38.3542H68.94Z" fill="white"/>
<path d="M75.13 37.5342L73.52 45.1542H72.52L74.13 37.5342H75.13Z" fill="white"/>
<path d="M77.69 45.3142C76.41 45.3142 75.77 44.7242 75.77 43.5542C75.7784 43.1573 75.8253 42.7621 75.91 42.3742L76.44 39.8742C76.5674 39.1752 76.9184 38.5365 77.44 38.0542C77.998 37.586 78.7126 37.3466 79.44 37.3842C80.74 37.3842 81.39 37.9542 81.39 39.1142C81.388 39.3707 81.3545 39.6259 81.29 39.8742L80.77 42.3742C80.646 43.2122 80.2773 43.995 79.71 44.6242C79.436 44.8676 79.1162 45.0539 78.7694 45.1724C78.4226 45.2909 78.0557 45.3391 77.69 45.3142ZM77.86 44.5042C78.0686 44.5152 78.2772 44.4836 78.4732 44.4114C78.6692 44.3392 78.8484 44.2279 79 44.0842C79.3722 43.5965 79.6132 43.0215 79.7 42.4142L80.25 39.8342C80.2909 39.6501 80.3143 39.4627 80.32 39.2742C80.3331 39.1256 80.3128 38.9759 80.2605 38.8362C80.2082 38.6965 80.1254 38.5702 80.018 38.4667C79.9106 38.3631 79.7814 38.2849 79.6399 38.2378C79.4984 38.1906 79.348 38.1757 79.2 38.1942C78.26 38.1942 77.68 38.7442 77.45 39.8342L76.9 42.4142C76.8211 42.7419 76.7775 43.0772 76.77 43.4142C76.755 43.5699 76.7731 43.727 76.8231 43.8752C76.8731 44.0234 76.9538 44.1594 77.06 44.2742C77.2911 44.4431 77.5745 44.5246 77.86 44.5042Z" fill="white"/>
<path d="M82.07 42.8842H83.07L83.02 43.1142C83.006 43.2505 83.006 43.3879 83.02 43.5242C83.02 44.1542 83.37 44.5242 84.02 44.5242C84.398 44.5673 84.778 44.4622 85.0801 44.231C85.3823 43.9997 85.5829 43.6604 85.64 43.2842C85.6495 43.2078 85.6495 43.1306 85.64 43.0542C85.6168 42.8434 85.5416 42.6417 85.4212 42.4671C85.3008 42.2926 85.1389 42.1507 84.95 42.0542L83.66 41.2342C83.4494 41.09 83.2762 40.8979 83.1545 40.6736C83.0328 40.4493 82.9661 40.1993 82.96 39.9442C82.9459 39.8012 82.9459 39.6572 82.96 39.5142C83.086 38.8926 83.4434 38.3421 83.96 37.9742C84.4573 37.6174 85.0583 37.4346 85.67 37.4542C86.83 37.4542 87.42 37.9242 87.42 38.8642C87.4151 39.1382 87.3748 39.4105 87.3 39.6742H86.3C86.3449 39.4942 86.3684 39.3096 86.37 39.1242C86.37 38.5742 86.05 38.2942 85.42 38.2942C85.1142 38.2847 84.8131 38.3722 84.56 38.5442C84.4155 38.6458 84.2925 38.775 84.1982 38.9243C84.1038 39.0736 84.0398 39.2401 84.01 39.4142C84.0002 39.4906 84.0002 39.5678 84.01 39.6442C84.0295 39.8548 84.1021 40.057 84.221 40.2319C84.34 40.4068 84.5013 40.5486 84.69 40.6442L85.99 41.4642C86.2009 41.6189 86.373 41.8205 86.4927 42.053C86.6124 42.2856 86.6765 42.5427 86.68 42.8042C86.6772 42.9587 86.6604 43.1127 86.63 43.2642C86.5262 43.9121 86.1756 44.4947 85.6518 44.8899C85.128 45.2851 84.4715 45.4622 83.82 45.3842C82.59 45.3842 81.97 44.8942 81.97 43.8942C81.9631 43.5547 81.9966 43.2157 82.07 42.8842Z" fill="white"/>
<path d="M90.03 45.1542L91.65 37.5342H93.99C94.99 37.5342 95.6 37.9242 95.8 38.6942C95.8188 38.8704 95.8188 39.048 95.8 39.2242C95.7875 39.8565 95.7138 40.4861 95.58 41.1042C95.4294 42.1956 95.0476 43.2422 94.46 44.1742C94.11 44.5333 93.684 44.8095 93.2133 44.9825C92.7427 45.1556 92.2393 45.221 91.74 45.1742L90.03 45.1542ZM92.44 38.3842L91.2 44.3142H92.12C92.6809 44.36 93.2374 44.1841 93.67 43.8242C94.0974 43.3154 94.3683 42.6937 94.45 42.0342L94.78 40.4942C94.8527 40.1825 94.8929 39.8642 94.9 39.5442C94.9283 39.3856 94.9178 39.2226 94.8695 39.0689C94.8212 38.9152 94.7365 38.7755 94.6226 38.6616C94.5087 38.5477 94.369 38.463 94.2153 38.4147C94.0616 38.3664 93.8986 38.3559 93.74 38.3842H92.44Z" fill="white"/>
<path d="M100.45 45.1542H96.45L98.07 37.5342H101.99L101.81 38.3842H98.86L98.34 40.8342H101.08L100.9 41.6742H98.2L97.64 44.3142H100.64L100.45 45.1542Z" fill="white"/>
<path d="M109.61 39.6242H108.61C108.671 39.3956 108.704 39.1606 108.71 38.9242C108.718 38.785 108.687 38.6464 108.62 38.5242C108.53 38.4058 108.411 38.313 108.274 38.2551C108.137 38.1972 107.988 38.1762 107.84 38.1942C107.516 38.1864 107.196 38.2732 106.92 38.4442C106.777 38.531 106.655 38.6469 106.56 38.7842L106.37 39.1242C106.204 39.5238 106.08 39.9393 106 40.3642L105.57 42.3642C105.492 42.6921 105.449 43.0273 105.44 43.3642C105.416 43.525 105.432 43.6892 105.486 43.8426C105.54 43.9959 105.631 44.1338 105.75 44.2442C105.971 44.3829 106.23 44.4461 106.49 44.4242C106.759 44.4243 107.021 44.3404 107.24 44.1842C107.664 43.85 107.946 43.3677 108.03 42.8342H109.03C108.991 43.5036 108.69 44.1308 108.192 44.58C107.695 45.0292 107.04 45.2642 106.37 45.2342C105.938 45.2601 105.505 45.1812 105.11 45.0042C104.873 44.8337 104.687 44.6025 104.571 44.335C104.455 44.0674 104.413 43.7735 104.45 43.4842C104.456 43.0562 104.509 42.6302 104.61 42.2142L105.06 40.0642C105.182 39.2287 105.58 38.4579 106.19 37.8742C106.74 37.4661 107.416 37.2643 108.1 37.3042C109.2 37.3042 109.76 37.7442 109.76 38.6142C109.759 38.9563 109.708 39.2965 109.61 39.6242Z" fill="white"/>
<path d="M112.28 45.3142C111 45.3142 110.36 44.7242 110.36 43.5542C110.367 43.1566 110.418 42.761 110.51 42.3742L111.03 39.8742C111.157 39.1752 111.508 38.5365 112.03 38.0542C112.588 37.586 113.303 37.3466 114.03 37.3842C115.33 37.3842 116.03 37.9542 116.03 39.1142C116.028 39.3707 115.994 39.6259 115.93 39.8742L115.41 42.3742C115.244 43.2295 114.822 44.0141 114.2 44.6242C113.672 45.091 112.985 45.3379 112.28 45.3142ZM112.45 44.5042C112.659 44.5152 112.867 44.4836 113.063 44.4114C113.259 44.3392 113.438 44.2279 113.59 44.0842C113.962 43.5965 114.203 43.0215 114.29 42.4142L114.84 39.8342C114.881 39.6501 114.904 39.4627 114.91 39.2742C114.923 39.1256 114.903 38.9759 114.85 38.8362C114.798 38.6965 114.715 38.5702 114.608 38.4667C114.501 38.3631 114.371 38.2849 114.23 38.2378C114.088 38.1906 113.938 38.1757 113.79 38.1942C112.85 38.1942 112.27 38.7442 112.04 39.8342L111.49 42.4142C111.411 42.7419 111.367 43.0772 111.36 43.4142C111.343 43.57 111.36 43.7277 111.41 43.8762C111.46 44.0247 111.542 44.1605 111.65 44.2742C111.881 44.4431 112.165 44.5246 112.45 44.5042Z" fill="white"/>
<path d="M118.75 38.3842L117.31 45.1542H116.4L118.02 37.5342H119.59L120.16 43.9342L123.44 37.5342H125.06L123.44 45.1542H122.44L123.88 38.3842L120.31 45.1542H119.39L118.74 38.3842H118.75Z" fill="white"/>
<path d="M127.73 45.1542H125.28L126.89 37.5342H129.37C130.25 37.5342 130.79 37.8542 130.98 38.4842C131.045 38.7638 131.045 39.0546 130.98 39.3342C130.923 39.7737 130.729 40.1841 130.426 40.5072C130.122 40.8303 129.725 41.0497 129.29 41.1342V41.1842C130.11 41.2842 130.52 41.7142 130.52 42.4542C130.518 42.6424 130.498 42.83 130.46 43.0142C130.37 43.6548 130.036 44.2356 129.527 44.6347C129.017 45.0338 128.373 45.22 127.73 45.1542ZM127.01 41.5942L126.43 44.3142H127.8C128.236 44.3272 128.659 44.1692 128.98 43.8742C129.233 43.6475 129.408 43.3465 129.48 43.0142C129.509 42.8659 129.526 42.7154 129.53 42.5642C129.545 42.4058 129.514 42.2465 129.439 42.106C129.364 41.9655 129.25 41.8501 129.11 41.7742C128.772 41.6333 128.406 41.5717 128.04 41.5942H127.01ZM127.68 38.3842L127.19 40.7442H128.6C128.944 40.7636 129.281 40.648 129.541 40.4219C129.801 40.1959 129.962 39.8773 129.99 39.5342C129.999 39.4311 129.999 39.3273 129.99 39.2242C129.99 38.6642 129.66 38.3842 128.99 38.3842H127.68Z" fill="white"/>
<path d="M132.2 42.3742L133.2 37.5342H134.2L133.2 42.4142C133.124 42.7425 133.081 43.0774 133.07 43.4142C133.054 43.5723 133.072 43.7321 133.124 43.8824C133.176 44.0327 133.26 44.1698 133.37 44.2842C133.604 44.4554 133.891 44.537 134.18 44.5142C134.39 44.5272 134.601 44.4965 134.799 44.4243C134.997 44.352 135.178 44.2396 135.33 44.0942C135.714 43.6112 135.962 43.0348 136.05 42.4242L137.05 37.5442H138.05L137.05 42.3842C136.93 43.2235 136.561 44.0074 135.99 44.6342C135.719 44.876 135.403 45.0616 135.059 45.18C134.716 45.2985 134.352 45.3475 133.99 45.3242C132.71 45.3242 132.07 44.7342 132.07 43.5642C132.07 43.164 132.114 42.765 132.2 42.3742Z" fill="white"/>
<path d="M138.34 42.8842H139.34L139.29 43.1142C139.276 43.2505 139.276 43.3879 139.29 43.5242C139.29 44.1542 139.63 44.5242 140.29 44.5242C140.67 44.5701 141.052 44.4663 141.357 44.2348C141.661 44.0033 141.863 43.6623 141.92 43.2842C141.924 43.2076 141.924 43.1308 141.92 43.0542C141.897 42.8421 141.82 42.6394 141.698 42.4646C141.576 42.2898 141.411 42.1487 141.22 42.0542L139.94 41.2342C139.729 41.09 139.556 40.8979 139.434 40.6736C139.313 40.4493 139.246 40.1993 139.24 39.9442C139.226 39.8013 139.226 39.6572 139.24 39.5142C139.366 38.8926 139.723 38.3421 140.24 37.9742C140.739 37.6201 141.339 37.4375 141.95 37.4542C143.12 37.4542 143.7 37.9242 143.7 38.8642C143.694 39.1375 143.657 39.4092 143.59 39.6742H142.59C142.638 39.4945 142.664 39.31 142.67 39.1242C142.67 38.5742 142.35 38.2942 141.72 38.2942C141.411 38.2866 141.108 38.3739 140.85 38.5442C140.564 38.7552 140.368 39.0656 140.3 39.4142C140.295 39.4908 140.295 39.5676 140.3 39.6442C140.322 39.8553 140.397 40.0574 140.518 40.2321C140.638 40.4068 140.801 40.5485 140.99 40.6442L142.29 41.4642C142.498 41.6205 142.668 41.8227 142.786 42.055C142.904 42.2873 142.967 42.5437 142.97 42.8042C142.971 43.1675 142.895 43.5268 142.747 43.8588C142.6 44.1908 142.385 44.4881 142.115 44.7315C141.845 44.9748 141.527 45.1586 141.182 45.2711C140.836 45.3835 140.471 45.4221 140.11 45.3842C138.88 45.3842 138.27 44.8942 138.27 43.8942C138.252 43.5559 138.276 43.2168 138.34 42.8842Z" fill="white"/>
<path d="M144.85 37.5342H149.85L149.67 38.3842H147.67L146.2 45.1542H145.2L146.64 38.3842H144.64L144.85 37.5342Z" fill="white"/>
<path d="M151.93 37.5342L150.32 45.1542H149.32L150.93 37.5342H151.93Z" fill="white"/>
<path d="M154.7 45.1542H152.25L153.87 37.5342H156.34C157.22 37.5342 157.76 37.8542 157.95 38.4842C158.02 38.7632 158.02 39.0552 157.95 39.3342C157.896 39.7748 157.703 40.1868 157.399 40.5104C157.095 40.8341 156.696 41.0526 156.26 41.1342V41.1842C157.08 41.2842 157.5 41.7142 157.5 42.4542C157.494 42.6426 157.471 42.8302 157.43 43.0142C157.343 43.6559 157.009 44.2383 156.499 44.6378C155.989 45.0373 155.344 45.2226 154.7 45.1542ZM153.98 41.5942L153.4 44.3142H154.77C155.206 44.3272 155.629 44.1692 155.95 43.8742C156.203 43.6475 156.378 43.3465 156.45 43.0142C156.484 42.8667 156.501 42.7157 156.5 42.5642C156.515 42.4058 156.484 42.2465 156.409 42.106C156.334 41.9655 156.22 41.8501 156.08 41.7742C155.745 41.6331 155.383 41.5715 155.02 41.5942H153.98ZM154.66 38.3842L154.16 40.7442H155.57C155.914 40.7636 156.251 40.648 156.511 40.4219C156.771 40.1959 156.932 39.8773 156.96 39.5342C156.974 39.4314 156.974 39.3271 156.96 39.2242C156.96 38.6642 156.64 38.3842 155.96 38.3842H154.66Z" fill="white"/>
<path d="M162.37 45.1542H158.6L160.22 37.5342H161.22L159.78 44.3142H162.58L162.37 45.1542Z" fill="white"/>
<path d="M167.28 45.1542H163.28L164.89 37.5342H168.82L168.64 38.3842H165.64L165.13 40.8342H167.87L167.69 41.6742H165L164.44 44.3142H167.44L167.28 45.1542Z" fill="white"/>
<path d="M0 34.0242H164.95" stroke="white" stroke-width="0.19" stroke-miterlimit="10"/>
<path d="M130.11 60.6242H34.11L36.3 49.7542H132.3L130.11 60.6242Z" fill="#49B8DB"/>
<path d="M38.86 57.9442L40.05 52.3342H42.05C42.2499 52.314 42.4517 52.3356 42.6428 52.3976C42.8339 52.4596 43.01 52.5606 43.16 52.6942C43.2774 52.8311 43.3662 52.9901 43.4212 53.1618C43.4762 53.3336 43.4962 53.5146 43.48 53.6942C43.4642 54.1655 43.404 54.6342 43.3 55.0942C43.1911 55.6996 43.0028 56.288 42.74 56.8442C42.5555 57.1886 42.2772 57.4737 41.9375 57.6666C41.5977 57.8594 41.2103 57.9522 40.82 57.9342L38.86 57.9442ZM41.05 53.1942L40.22 57.0842H40.79C40.949 57.0881 41.1061 57.0494 41.2451 56.972C41.384 56.8946 41.4997 56.7814 41.58 56.6442C41.809 56.169 41.9706 55.6641 42.06 55.1442C42.1554 54.733 42.2189 54.3151 42.25 53.8942C42.25 53.4242 42.05 53.1942 41.66 53.1942H41.05Z" fill="white"/>
<path d="M46.72 57.9442H43.59L44.78 52.3342H47.85L47.67 53.1942H45.78L45.48 54.5842H47.2L47.02 55.4442H45.3L44.95 57.0842H46.95L46.72 57.9442Z" fill="white"/>
<path d="M50.42 57.9442H47.49L48.68 52.3342H49.85L48.85 57.0142H50.6L50.42 57.9442Z" fill="white"/>
<path d="M53.32 54.3742L53.53 53.3742C53.9834 53.1691 54.3966 52.8846 54.75 52.5342H55.8L54.65 57.9642H53.47L54.36 53.7942C54.0288 54.0141 53.6811 54.208 53.32 54.3742Z" fill="white"/>
<path d="M57.34 58.0142C56.46 58.0142 56.02 57.6842 56.02 57.0142C56.0221 56.8591 56.0422 56.7047 56.08 56.5542C56.1327 56.2408 56.241 55.9394 56.4 55.6642C56.5947 55.3915 56.8715 55.1883 57.19 55.0842C57.0214 55.0526 56.8706 54.9592 56.767 54.8224C56.6635 54.6856 56.6146 54.5151 56.63 54.3442C56.635 54.1931 56.6517 54.0427 56.68 53.8942C56.7375 53.4632 56.9609 53.0716 57.3026 52.8027C57.6444 52.5337 58.0775 52.4087 58.51 52.4542C59.36 52.4542 59.79 52.7842 59.79 53.4542C59.7885 53.6061 59.7683 53.7572 59.73 53.9042C59.7035 54.1805 59.5937 54.4423 59.4151 54.6548C59.2366 54.8673 58.9976 55.0205 58.73 55.0942C58.9054 55.1533 59.0563 55.2687 59.1594 55.4224C59.2625 55.5761 59.3119 55.7595 59.3 55.9442C59.2926 56.1529 59.2658 56.3605 59.22 56.5642C59.1554 57.0023 58.9233 57.3982 58.5727 57.6686C58.222 57.9391 57.7802 58.063 57.34 58.0142ZM57.87 55.5242C57.7614 55.5267 57.656 55.5612 57.567 55.6235C57.478 55.6858 57.4095 55.773 57.37 55.8742C57.2892 56.0708 57.2289 56.2752 57.19 56.4842C57.1776 56.5939 57.1776 56.7046 57.19 56.8142C57.19 57.0842 57.31 57.2242 57.55 57.2242C57.79 57.2242 58.07 56.9742 58.18 56.4842C58.222 56.3102 58.2488 56.1329 58.26 55.9542C58.2 55.6242 58.1 55.5242 57.87 55.5242ZM58.36 53.2442C58.07 53.2442 57.88 53.4742 57.77 53.9542C57.7619 54.0674 57.7619 54.181 57.77 54.2942C57.77 54.5542 57.88 54.6842 58.09 54.6842C58.3 54.6842 58.57 54.4342 58.67 53.9542C58.6829 53.8479 58.6829 53.7405 58.67 53.6342C58.67 53.3742 58.56 53.2442 58.36 53.2442Z" fill="white"/>
<path d="M62.03 57.9442H60.87L63.62 52.3342H65.2L65.54 57.9442H64.3L64.25 56.7042H62.65L62.03 57.9442ZM64.15 55.8442L64.1 53.4142L63.05 55.8442H64.15Z" fill="white"/>
<path d="M68.99 57.9442H66.06L67.25 52.3342H68.42L67.42 57.0142H69.2L68.99 57.9442Z" fill="white"/>
<path d="M74.05 57.9442H70.83L71.04 56.9942L73.18 54.7842C73.4666 54.5094 73.6768 54.1648 73.79 53.7842C73.7993 53.7212 73.7993 53.6572 73.79 53.5942C73.79 53.3642 73.69 53.2542 73.47 53.2542C73.25 53.2542 72.94 53.5142 72.83 54.0342H71.73C71.7667 53.5822 71.9784 53.1624 72.32 52.8642C72.6706 52.5829 73.1108 52.4374 73.56 52.4542C74.45 52.4542 74.9 52.7942 74.9 53.4542C74.8969 53.5889 74.8801 53.7229 74.85 53.8542C74.6278 54.5623 74.2245 55.2 73.68 55.7042C73.47 55.9142 72.96 56.3842 72.14 57.1142H74.2L74.05 57.9442Z" fill="white"/>
<path d="M76.53 53.3542L76.24 54.7142C76.3478 54.5943 76.4808 54.4999 76.6295 54.4376C76.7783 54.3754 76.9389 54.3469 77.1 54.3542C77.69 54.3542 77.99 54.6542 77.99 55.2742C77.9807 55.567 77.9438 55.8583 77.88 56.1442C77.813 56.6963 77.5753 57.2137 77.2 57.6242C76.816 57.905 76.3444 58.0398 75.87 58.0042C75.06 58.0042 74.66 57.7042 74.66 57.1042C74.6622 56.9557 74.6824 56.8079 74.72 56.6642H75.82C75.7851 56.7919 75.7851 56.9265 75.82 57.0542C75.8468 57.1091 75.8902 57.154 75.9441 57.1828C75.9979 57.2115 76.0595 57.2225 76.12 57.2142C76.2137 57.2206 76.3072 57.1994 76.389 57.1532C76.4707 57.107 76.5372 57.0378 76.58 56.9542C76.7105 56.7003 76.7984 56.4266 76.84 56.1442C76.8949 55.9314 76.9284 55.7137 76.94 55.4942C76.94 55.2042 76.83 55.0542 76.61 55.0542C76.39 55.0542 76.15 55.2542 76.06 55.6542H75L75.67 52.5042H78.51L78.33 53.3442L76.53 53.3542Z" fill="white"/>
<path d="M79.89 57.9442L81.08 52.3342H83.08C83.2799 52.314 83.4817 52.3356 83.6728 52.3976C83.8639 52.4596 84.04 52.5606 84.19 52.6942C84.4233 52.9729 84.5382 53.3319 84.51 53.6942C84.495 54.1662 84.4313 54.6353 84.32 55.0942C84.2204 55.7019 84.0317 56.2916 83.76 56.8442C83.5755 57.1886 83.2972 57.4737 82.9575 57.6666C82.6177 57.8594 82.2303 57.9522 81.84 57.9342L79.89 57.9442ZM82.07 53.1942L81.25 57.0842H81.82C81.9777 57.0885 82.1336 57.0498 82.271 56.9723C82.4084 56.8948 82.5221 56.7814 82.6 56.6442C82.8382 56.1727 83.0003 55.6664 83.08 55.1442C83.1806 54.734 83.2441 54.3157 83.27 53.8942C83.27 53.4242 83.08 53.1942 82.68 53.1942H82.07Z" fill="white"/>
<path d="M87.74 57.9442H84.62L85.81 52.3342H88.87L88.69 53.1942H86.8L86.51 54.5842H88.25L88.06 55.4442H86.32L85.98 57.0842H87.98L87.74 57.9442Z" fill="white"/>
<path d="M90.26 57.9442L91.45 52.3342H93.45C93.6499 52.314 93.8517 52.3356 94.0428 52.3976C94.2339 52.4596 94.41 52.5606 94.56 52.6942C94.7933 52.9729 94.9082 53.3319 94.88 53.6942C94.865 54.1662 94.8013 54.6353 94.69 55.0942C94.5904 55.7019 94.4017 56.2916 94.13 56.8442C93.9455 57.1886 93.6672 57.4737 93.3275 57.6666C92.9877 57.8594 92.6003 57.9522 92.21 57.9342L90.26 57.9442ZM92.44 53.1942L91.62 57.0842H92.2C92.3577 57.0885 92.5136 57.0498 92.651 56.9723C92.7884 56.8948 92.9021 56.7814 92.98 56.6442C93.2182 56.1727 93.3803 55.6664 93.46 55.1442C93.5606 54.734 93.6242 54.3157 93.65 53.8942C93.65 53.4242 93.45 53.1942 93.06 53.1942H92.44Z" fill="white"/>
<path d="M96.2 57.9442H95.03L96.2 52.3342H97.39L96.2 57.9442Z" fill="white"/>
<path d="M99.01 58.0442C98.5659 58.0848 98.1238 57.9482 97.78 57.6642C97.5457 57.3861 97.4307 57.0267 97.46 56.6642C97.4912 56.1451 97.5681 55.6298 97.69 55.1242C97.8017 54.4252 98.0281 53.7494 98.36 53.1242C98.5688 52.822 98.8532 52.5798 99.1848 52.4219C99.5165 52.264 99.8837 52.1958 100.25 52.2242C101.14 52.2242 101.58 52.6042 101.58 53.3642C101.577 53.6107 101.543 53.8559 101.48 54.0942H100.33C100.375 53.8971 100.402 53.6962 100.41 53.4942C100.41 53.2142 100.29 53.0642 100.07 53.0642C99.914 53.0669 99.7622 53.1146 99.6327 53.2015C99.5032 53.2885 99.4016 53.4109 99.34 53.5542C99.1295 54.0625 98.9753 54.5924 98.88 55.1342C98.7688 55.5971 98.6985 56.069 98.67 56.5442C98.67 56.9742 98.84 57.1942 99.19 57.1942C99.3122 57.1889 99.43 57.147 99.5281 57.0738C99.6261 57.0007 99.7 56.8998 99.74 56.7842C99.8412 56.5458 99.9182 56.2979 99.97 56.0442H101.13C101.05 56.6343 100.78 57.1821 100.36 57.6042C99.9789 57.9111 99.4986 58.0676 99.01 58.0442Z" fill="white"/>
<path d="M102.65 57.9442H101.48L102.65 52.3342H103.84L102.65 57.9442Z" fill="white"/>
<path d="M106.76 57.9442H103.64L104.83 52.3342H107.89L107.71 53.1942H105.82L105.53 54.5842H107.27L107.08 55.4442H105.34L105 57.0842H106.95L106.76 57.9442Z" fill="white"/>
<path d="M108.65 57.9442H107.5L108.69 52.3342H110.58L110.65 56.1542L112.39 52.3342H114.2L113.01 57.9442H111.87L112.78 53.6142L110.78 57.9442H109.66L109.55 53.6142L108.65 57.9442Z" fill="white"/>
<path d="M116.1 57.9442H114.02L115.21 52.3342H117.3C118.22 52.3342 118.68 52.6675 118.68 53.3342C118.677 53.4887 118.66 53.6426 118.63 53.7942C118.587 54.1044 118.445 54.3924 118.225 54.6157C118.005 54.839 117.719 54.9857 117.41 55.0342C117.523 55.0367 117.634 55.0619 117.737 55.1084C117.84 55.1549 117.933 55.2217 118.009 55.3048C118.086 55.3879 118.145 55.4856 118.183 55.592C118.221 55.6984 118.237 55.8114 118.23 55.9242C118.228 56.1063 118.204 56.2875 118.16 56.4642C118.077 56.9304 117.815 57.3458 117.43 57.6222C117.046 57.8985 116.568 58.0141 116.1 57.9442ZM115.72 55.4942L115.38 57.0842H116.04C116.158 57.0995 116.277 57.0911 116.392 57.0595C116.506 57.0278 116.613 56.9736 116.707 56.9C116.8 56.8264 116.877 56.7349 116.935 56.6308C116.992 56.5268 117.028 56.4123 117.04 56.2942C117.053 56.198 117.053 56.1004 117.04 56.0042C117.04 55.6642 116.82 55.4942 116.39 55.4942H115.72ZM116.21 53.1942L115.91 54.6342H116.69C116.849 54.6335 117.004 54.5808 117.13 54.4842C117.301 54.3423 117.414 54.1434 117.45 53.9242C117.459 53.8645 117.459 53.8039 117.45 53.7442C117.453 53.6724 117.441 53.6009 117.415 53.5338C117.389 53.4668 117.35 53.4057 117.3 53.3542C117.247 53.3033 117.184 53.2638 117.115 53.238C117.047 53.2122 116.973 53.2007 116.9 53.2042L116.21 53.1942Z" fill="white"/>
<path d="M120.41 55.6242L119.91 57.9442H118.74L119.91 52.3342H122.09C122.8 52.3342 123.16 52.6642 123.16 53.3342C123.158 53.4894 123.138 53.6438 123.1 53.7942C123.063 54.1383 122.912 54.46 122.671 54.7083C122.43 54.9566 122.113 55.1171 121.77 55.1642C122.32 55.2342 122.6 55.4842 122.6 55.9342C122.614 56.0438 122.614 56.1547 122.6 56.2642C122.48 56.7667 122.403 57.2786 122.37 57.7942C122.37 57.8542 122.37 57.8942 122.37 57.9142H121.2C121.189 57.8279 121.189 57.7405 121.2 57.6542C121.213 57.3933 121.257 57.1349 121.33 56.8842C121.397 56.6322 121.441 56.3744 121.46 56.1142C121.46 55.7642 121.22 55.5942 120.76 55.5942L120.41 55.6242ZM120.92 53.1942L120.59 54.7542H121.11C121.216 54.7543 121.32 54.7288 121.414 54.6801C121.508 54.6314 121.589 54.5608 121.65 54.4742C121.769 54.3143 121.851 54.1298 121.89 53.9342C121.899 53.8411 121.899 53.7473 121.89 53.6542C121.89 53.3442 121.73 53.1942 121.41 53.1942H120.92Z" fill="white"/>
<path d="M126.2 57.9442H123.08L124.27 52.3342H127.33L127.15 53.1942H125.26L124.97 54.5842H126.71L126.52 55.4442H124.78L124.44 57.0842H126.39L126.2 57.9442Z" fill="white"/>
</svg>
